{"glyphs":{"\r":{"ha":135,"x_min":0,"x_max":0,"o":""}," ":{"ha":361,"x_min":0,"x_max":0,"o":""},"ก":{"ha":857,"x_min":90,"x_max":746,"o":"m 113 0 l 113 267 q 121 331 113 302 q 147 381 129 359 q 193 417 165 402 q 262 440 222 431 q 221 465 245 454 q 171 481 196 475 q 123 491 145 488 q 90 494 101 494 q 113 609 93 557 q 173 699 133 661 q 273 757 212 736 q 416 778 333 778 q 575 755 511 778 q 676 692 638 732 q 730 595 714 651 q 746 472 746 538 l 746 0 l 632 0 l 632 464 q 621 556 632 515 q 584 626 609 597 q 517 670 558 655 q 416 686 476 686 q 323 674 361 686 q 261 643 286 662 q 224 599 237 623 q 207 550 211 574 q 260 536 234 546 q 308 515 286 527 q 347 489 330 503 q 374 463 363 475 l 374 424 q 307 404 335 416 q 261 373 279 391 q 235 328 243 354 q 227 265 227 301 l 227 0 l 113 0 z "},"ข":{"ha":917,"x_min":39,"x_max":806,"o":"m 229 92 l 339 92 l 339 357 q 347 428 339 397 q 369 486 354 460 q 408 535 385 513 q 463 578 431 557 q 456 616 463 595 q 431 656 449 637 q 382 686 413 674 q 302 699 351 699 q 223 688 257 699 q 167 658 189 677 q 133 614 144 640 q 122 559 122 589 q 156 586 135 575 q 203 596 178 596 q 244 589 224 596 q 280 568 264 583 q 304 532 295 554 q 313 481 313 511 q 303 431 313 452 q 277 395 294 410 q 238 373 261 380 q 189 366 216 366 q 122 379 151 366 q 75 417 94 393 q 48 475 57 441 q 39 550 39 509 q 53 637 39 596 q 100 710 68 679 q 182 760 132 741 q 302 778 232 778 q 425 762 373 778 q 510 719 476 746 q 560 655 544 692 q 576 576 576 618 q 518 525 542 549 q 480 475 494 500 q 459 421 465 450 q 453 357 453 393 l 453 92 l 526 92 q 651 132 611 92 q 692 264 692 172 l 692 764 l 806 764 l 806 240 q 791 142 806 186 q 746 66 776 98 q 673 17 717 35 q 571 0 629 0 l 229 0 l 229 92 m 241 481 q 226 517 241 504 q 187 531 211 531 q 150 517 165 531 q 136 481 136 504 q 150 443 136 457 q 187 429 165 429 q 226 443 211 429 q 241 481 241 457 z "},"ฃ":{"ha":917,"x_min":39,"x_max":806,"o":"m 229 92 l 339 92 l 339 357 q 343 413 339 385 q 359 468 347 441 q 397 521 372 495 q 463 570 421 547 q 460 602 463 585 q 451 634 458 618 q 430 663 444 650 q 392 682 416 676 l 294 595 l 196 683 q 156 662 171 677 q 134 629 142 648 q 124 592 126 611 q 122 559 122 574 q 156 586 135 575 q 203 596 178 596 q 244 589 224 596 q 280 568 264 583 q 304 532 295 554 q 313 481 313 511 q 303 431 313 452 q 277 395 294 410 q 238 373 261 380 q 189 366 216 366 q 122 380 151 366 q 75 418 94 394 q 48 476 57 443 q 39 547 39 509 q 48 623 39 586 q 77 691 57 660 q 128 744 97 722 q 203 774 159 766 l 294 690 l 386 774 q 476 748 439 767 q 535 701 513 728 q 567 640 557 673 q 576 569 576 606 q 512 516 536 542 q 474 463 488 490 q 457 410 461 437 q 453 357 453 384 l 453 92 l 526 92 q 651 132 611 92 q 692 264 692 172 l 692 764 l 806 764 l 806 240 q 791 142 806 186 q 746 66 776 98 q 673 17 717 35 q 571 0 629 0 l 229 0 l 229 92 m 241 481 q 226 517 241 504 q 187 531 211 531 q 150 517 165 531 q 136 481 136 504 q 150 443 136 457 q 187 429 165 429 q 226 443 211 429 q 241 481 241 457 z "},"ค":{"ha":895,"x_min":77,"x_max":783,"o":"m 346 296 q 323 269 339 289 q 291 218 307 250 q 261 143 274 186 q 248 44 248 99 l 248 28 l 248 0 l 134 0 l 134 81 q 130 178 134 136 q 119 255 125 220 q 105 318 113 290 q 91 374 98 347 q 81 431 85 402 q 77 494 77 460 q 101 610 77 558 q 172 700 125 663 q 284 758 218 737 q 433 778 350 778 q 595 755 528 778 q 703 692 661 732 q 764 595 745 651 q 783 472 783 538 l 783 0 l 669 0 l 669 464 q 655 556 669 515 q 611 626 640 597 q 537 670 581 655 q 433 686 492 686 q 331 672 376 686 q 255 635 286 659 q 206 575 223 610 q 189 497 189 541 q 193 436 189 466 q 202 376 196 406 q 214 315 208 346 q 227 249 221 283 q 263 354 243 305 q 308 439 283 403 q 366 495 334 475 q 440 515 398 515 q 542 481 506 515 q 578 386 578 447 q 543 291 578 324 q 440 257 507 257 q 384 269 410 257 q 346 296 359 280 m 505 386 q 487 433 505 416 q 439 450 469 450 q 393 433 411 450 q 374 386 374 416 q 393 340 374 357 q 439 323 411 323 q 487 340 469 323 q 505 386 505 357 z "},"ฅ":{"ha":895,"x_min":77,"x_max":783,"o":"m 346 296 q 323 270 339 289 q 291 219 307 250 q 262 146 275 189 q 248 50 249 104 l 248 0 l 134 0 l 134 81 q 130 178 134 136 q 119 255 125 220 q 105 318 113 290 q 91 374 98 347 q 81 431 85 402 q 77 494 77 460 q 89 594 77 551 q 128 672 100 638 q 201 731 155 706 q 313 775 246 756 l 432 676 l 551 775 q 666 729 621 755 q 737 667 711 703 q 773 584 763 631 q 783 472 783 536 l 783 0 l 669 0 l 669 464 q 664 545 669 512 q 646 600 659 577 q 610 639 633 623 q 551 669 587 655 l 432 572 l 311 669 q 254 640 277 656 q 216 604 231 625 q 196 558 202 584 q 189 497 189 532 q 202 373 189 433 q 228 252 215 313 q 264 356 244 308 q 309 439 283 404 q 367 495 334 475 q 440 515 399 515 q 542 481 506 515 q 578 386 578 447 q 543 291 578 324 q 440 257 507 257 q 384 269 410 257 q 346 296 359 280 m 505 386 q 487 433 505 416 q 439 450 469 450 q 393 433 411 450 q 374 386 374 416 q 393 340 374 357 q 439 323 411 323 q 487 340 469 323 q 505 386 505 357 z "},"ฆ":{"ha":930,"x_min":39,"x_max":806,"o":"m 241 481 q 226 517 241 504 q 187 531 211 531 q 150 517 165 531 q 136 481 136 504 q 150 443 136 457 q 187 429 165 429 q 226 443 211 429 q 241 481 241 457 m 243 117 q 257 73 243 87 q 293 58 271 58 q 329 74 319 58 q 339 121 339 90 l 339 197 q 266 169 289 190 q 243 117 243 149 m 453 143 q 446 75 453 104 q 421 27 438 46 q 378 -2 405 7 q 311 -12 351 -12 q 201 22 237 -12 q 164 117 164 56 q 174 170 164 145 q 204 215 183 195 q 258 248 225 235 q 339 267 292 262 l 339 357 q 343 413 339 385 q 359 468 347 441 q 397 521 372 495 q 463 570 421 547 q 460 602 463 585 q 451 634 458 618 q 430 663 444 650 q 392 682 416 676 l 294 595 l 196 683 q 156 662 171 677 q 134 629 142 648 q 124 592 126 611 q 122 559 122 574 q 156 586 135 575 q 203 596 178 596 q 244 589 224 596 q 280 568 264 583 q 304 532 295 554 q 313 481 313 511 q 303 431 313 452 q 277 395 294 410 q 238 373 261 380 q 189 366 216 366 q 122 380 151 366 q 75 418 94 394 q 48 476 57 443 q 39 547 39 509 q 48 623 39 586 q 77 691 57 660 q 128 744 97 722 q 203 774 159 766 l 294 690 l 386 774 q 476 748 439 767 q 535 701 513 728 q 567 640 557 673 q 576 569 576 606 q 512 516 536 542 q 474 463 488 490 q 457 410 461 437 q 453 357 453 384 l 453 263 q 585 221 522 254 q 692 134 648 188 l 692 764 l 806 764 l 806 0 l 692 0 q 644 65 671 34 q 585 122 616 96 q 520 165 554 147 q 453 189 487 182 l 453 143 z "},"ง":{"ha":657,"x_min":33,"x_max":546,"o":"m 399 513 q 303 546 338 513 q 269 642 269 580 q 305 737 269 703 q 407 771 341 771 q 510 737 474 771 q 546 642 546 703 l 546 171 q 502 33 546 79 q 358 -14 457 -14 q 273 -1 307 -14 q 217 41 240 12 q 177 115 194 69 q 142 225 160 160 q 112 325 124 290 q 89 378 100 361 q 65 399 77 395 q 33 403 52 403 l 33 500 q 94 496 68 500 q 138 483 119 492 q 172 456 157 473 q 198 414 186 439 q 221 352 210 388 q 245 268 232 316 q 275 166 262 204 q 302 109 289 129 q 329 83 315 89 q 359 77 342 77 q 413 95 394 77 q 432 160 432 114 l 432 515 q 418 513 429 514 q 399 513 407 513 m 342 642 q 360 596 342 613 q 408 578 378 578 q 454 596 436 578 q 473 642 473 613 q 454 688 473 671 q 408 705 436 705 q 360 688 378 705 q 342 642 342 671 z "},"จ":{"ha":806,"x_min":64,"x_max":694,"o":"m 517 -14 q 440 -6 471 -14 q 387 21 409 2 q 347 73 364 41 q 311 154 330 105 l 275 249 q 245 240 264 244 q 212 236 226 236 q 110 270 145 236 q 75 366 75 304 q 111 460 75 426 q 212 494 146 494 q 267 486 244 494 q 307 458 290 477 q 339 410 325 439 q 370 339 354 380 l 435 167 q 470 102 452 121 q 515 83 488 83 q 562 102 544 83 q 581 167 581 120 l 581 488 q 567 566 581 530 q 527 628 553 602 q 460 669 500 654 q 367 684 420 684 q 240 661 304 684 q 117 600 176 639 l 64 684 q 199 751 125 725 q 367 778 273 778 q 504 758 444 778 q 607 701 565 738 q 672 612 650 664 q 694 496 694 560 l 694 171 q 685 90 694 125 q 655 33 676 56 q 600 -2 634 9 q 517 -14 566 -14 m 148 366 q 166 319 148 336 q 214 302 184 302 q 260 319 242 302 q 278 366 278 336 q 260 412 278 395 q 214 429 242 429 q 166 412 184 429 q 148 366 148 395 z "},"ฉ":{"ha":897,"x_min":58,"x_max":869,"o":"m 132 389 q 150 343 132 360 q 197 326 168 326 q 243 343 225 326 q 262 389 262 360 q 243 435 262 418 q 197 452 225 452 q 150 435 168 452 q 132 389 132 418 m 694 267 q 775 248 742 262 q 829 215 808 235 q 860 170 850 195 q 869 117 869 145 q 833 22 869 56 q 723 -12 796 -12 q 656 -2 684 -12 q 612 27 629 7 q 588 75 595 46 q 581 143 581 104 l 581 189 q 512 165 547 182 q 445 122 477 147 q 384 65 412 96 q 335 0 355 34 l 221 0 l 221 262 q 207 260 218 260 q 187 259 196 259 q 93 293 127 259 q 58 389 58 327 q 94 484 58 450 q 196 517 130 517 q 299 484 263 517 q 335 389 335 450 l 335 134 q 385 182 357 161 q 445 220 413 204 q 512 248 477 237 q 581 263 546 258 l 581 488 q 567 566 581 530 q 527 628 553 602 q 460 669 500 654 q 367 684 420 684 q 240 661 304 684 q 117 600 176 639 l 64 684 q 199 751 125 725 q 367 778 273 778 q 504 758 444 778 q 607 701 565 738 q 672 612 650 664 q 694 496 694 560 l 694 267 m 790 117 q 767 169 790 149 q 694 197 745 190 l 694 121 q 705 74 694 90 q 741 58 715 58 q 776 73 762 58 q 790 117 790 87 z "},"ช":{"ha":917,"x_min":39,"x_max":952,"o":"m 229 92 l 339 92 l 339 357 q 347 428 339 396 q 369 486 354 460 q 408 535 385 513 q 463 578 431 557 q 456 616 463 595 q 431 655 449 637 q 382 686 413 673 q 302 699 351 699 q 223 688 257 699 q 167 658 189 677 q 133 614 144 640 q 122 559 122 589 q 156 586 135 575 q 203 596 178 596 q 244 589 224 596 q 280 568 264 582 q 304 532 295 553 q 313 481 313 510 q 303 431 313 452 q 277 395 294 410 q 238 373 261 380 q 189 366 216 366 q 122 379 151 366 q 75 417 94 393 q 48 475 57 441 q 39 550 39 509 q 53 637 39 596 q 100 710 68 679 q 182 760 132 741 q 302 778 232 778 q 425 762 373 778 q 510 719 476 746 q 560 655 544 692 q 576 576 576 618 q 518 525 542 549 q 480 475 494 500 q 459 421 465 450 q 453 357 453 392 l 453 92 l 526 92 q 651 132 610 92 q 692 264 692 172 l 692 454 q 675 524 692 499 q 627 562 659 549 l 627 593 q 664 611 647 600 q 700 641 682 622 q 738 688 718 660 q 784 755 758 715 l 825 819 l 952 819 l 911 758 q 861 687 883 717 q 819 635 840 656 q 775 599 798 613 q 724 576 753 585 q 785 532 764 563 q 806 460 806 500 l 806 240 q 791 142 806 186 q 746 66 776 98 q 673 17 717 35 q 571 0 629 0 l 229 0 l 229 92 m 241 481 q 226 517 241 504 q 187 531 211 531 q 150 517 165 531 q 136 481 136 504 q 150 443 136 457 q 187 429 165 429 q 226 443 211 429 q 241 481 241 457 z "},"ซ":{"ha":917,"x_min":39,"x_max":952,"o":"m 724 576 q 785 532 764 563 q 806 460 806 500 l 806 240 q 791 142 806 186 q 746 66 776 98 q 673 17 717 35 q 571 0 629 0 l 229 0 l 229 92 l 339 92 l 339 357 q 343 413 339 385 q 359 468 347 441 q 397 521 372 495 q 463 570 421 547 q 460 602 463 585 q 451 634 458 618 q 429 663 444 650 q 392 682 415 676 l 294 595 l 196 683 q 156 662 171 677 q 134 629 142 648 q 124 592 126 611 q 122 559 122 574 q 156 586 135 575 q 203 596 178 596 q 244 589 224 596 q 280 568 264 582 q 304 532 295 553 q 313 481 313 510 q 303 431 313 452 q 277 395 294 410 q 238 373 261 380 q 189 366 216 366 q 122 380 151 366 q 75 418 94 394 q 48 476 57 443 q 39 547 39 509 q 48 623 39 586 q 77 691 57 660 q 128 744 97 722 q 203 774 159 766 l 294 690 l 386 774 q 476 748 439 767 q 535 701 513 728 q 567 640 557 673 q 576 569 576 606 q 512 516 536 542 q 474 463 488 490 q 457 410 461 437 q 453 357 453 384 l 453 92 l 526 92 q 651 132 610 92 q 692 264 692 172 l 692 454 q 675 524 692 499 q 627 562 659 549 l 627 593 q 664 611 647 600 q 700 641 682 622 q 738 688 718 660 q 784 755 758 715 l 825 819 l 952 819 l 911 758 q 861 687 883 717 q 819 635 840 656 q 775 599 798 613 q 724 576 753 585 m 241 481 q 226 517 241 504 q 187 531 211 531 q 150 517 165 531 q 136 481 136 504 q 150 443 136 457 q 187 429 165 429 q 226 443 211 429 q 241 481 241 457 z "},"ฌ":{"ha":1229,"x_min":90,"x_max":1104,"o":"m 316 117 q 298 162 316 145 q 250 179 280 179 q 204 162 222 179 q 186 117 186 145 q 204 70 186 87 q 250 52 222 52 q 298 70 280 52 q 316 117 316 87 m 542 117 q 556 73 542 87 q 591 58 570 58 q 631 74 617 58 q 644 121 644 90 l 644 197 q 568 169 594 190 q 542 117 542 149 m 207 550 q 260 536 234 546 q 308 515 286 527 q 347 489 330 503 q 374 463 363 475 l 374 424 q 307 404 335 416 q 261 373 279 391 q 235 328 243 354 q 227 265 227 301 l 227 243 q 239 245 230 244 q 257 245 248 245 q 354 212 320 245 q 389 117 389 178 q 353 22 389 56 q 252 -12 317 -12 q 149 22 184 -12 q 113 117 113 56 l 113 267 q 121 331 113 302 q 147 381 129 359 q 193 417 165 402 q 262 440 222 431 q 221 465 245 454 q 171 481 196 475 q 123 491 145 488 q 90 494 101 494 q 116 609 93 557 q 181 699 138 661 q 286 757 224 736 q 428 778 348 778 q 582 755 519 778 q 684 692 645 732 q 741 595 724 651 q 758 472 758 538 l 758 263 q 887 221 827 254 q 990 134 946 188 l 990 764 l 1104 764 l 1104 0 l 990 0 q 943 65 969 34 q 887 122 917 96 q 825 165 857 147 q 758 189 792 182 l 758 143 q 723 27 758 66 q 609 -12 688 -12 q 499 22 536 -12 q 463 117 463 56 q 473 170 463 145 q 506 215 484 195 q 563 248 528 235 q 644 267 597 262 l 644 464 q 632 556 644 515 q 593 626 619 597 q 526 670 566 655 q 429 686 485 686 q 336 674 375 686 q 270 643 297 662 q 228 599 243 623 q 207 550 213 574 z "},"ญ":{"ha":1215,"x_min":90,"x_max":1120,"o":"m 316 117 q 298 162 316 145 q 250 179 280 179 q 204 162 222 179 q 186 117 186 145 q 204 70 186 87 q 250 52 222 52 q 298 70 280 52 q 316 117 316 87 m 644 0 l 644 464 q 631 556 644 515 q 592 626 618 597 q 525 670 566 655 q 428 686 484 686 q 335 674 374 686 q 270 643 296 662 q 228 599 243 623 q 207 550 213 574 q 260 536 234 546 q 308 515 286 527 q 347 489 330 503 q 374 463 363 475 l 374 424 q 307 404 335 416 q 261 373 279 391 q 235 328 243 354 q 227 265 227 301 l 227 243 q 239 245 230 244 q 257 245 248 245 q 354 212 320 245 q 389 117 389 178 q 353 22 389 56 q 252 -12 317 -12 q 149 22 184 -12 q 113 117 113 56 l 113 267 q 121 331 113 302 q 147 381 129 359 q 193 417 165 402 q 262 440 222 431 q 221 465 245 454 q 171 481 196 475 q 123 491 145 488 q 90 494 101 494 q 116 609 93 557 q 181 699 138 661 q 286 757 224 736 q 428 778 348 778 q 582 755 519 778 q 684 692 645 732 q 741 595 724 651 q 758 472 758 538 l 758 92 l 825 92 q 950 132 909 92 q 990 264 990 172 l 990 764 l 1104 764 l 1104 240 q 1089 142 1104 186 q 1045 66 1074 98 q 971 17 1015 35 q 869 0 928 0 l 644 0 m 793 -323 q 718 -313 751 -323 q 663 -284 685 -302 q 629 -241 640 -267 q 617 -186 617 -216 q 651 -101 617 -132 q 744 -70 686 -70 q 837 -100 804 -70 q 869 -179 869 -130 q 860 -225 869 -208 q 840 -251 850 -242 q 901 -231 873 -245 q 949 -195 928 -216 q 989 -145 971 -174 q 1021 -81 1006 -116 l 1120 -81 q 1063 -179 1093 -134 q 995 -255 1034 -223 q 907 -305 956 -288 q 793 -323 857 -323 m 686 -187 q 702 -228 686 -213 q 744 -243 718 -243 q 785 -228 768 -243 q 801 -187 801 -213 q 785 -145 801 -161 q 744 -130 768 -130 q 702 -145 718 -130 q 686 -187 686 -161 z "},"ฎ":{"ha":892,"x_min":31,"x_max":781,"o":"m 245 550 q 310 536 277 546 q 371 515 342 527 q 420 489 399 503 q 454 463 442 475 l 454 424 q 387 404 415 416 q 342 373 359 391 q 316 328 324 354 q 307 265 307 301 l 307 117 q 271 22 307 56 q 168 -12 235 -12 q 66 22 102 -12 q 31 117 31 56 q 65 212 31 178 q 163 245 100 245 q 180 245 171 245 q 193 243 190 244 l 193 267 q 201 331 193 302 q 227 381 210 359 q 273 417 245 402 q 342 440 302 431 q 291 465 321 454 q 229 481 260 475 q 171 491 198 488 q 129 494 143 494 q 152 609 132 557 q 212 699 172 661 q 311 757 252 736 q 450 778 370 778 q 604 755 541 778 q 707 692 667 732 q 763 595 746 651 q 781 472 781 538 l 781 -353 l 673 -353 q 604 -278 644 -316 q 520 -211 563 -241 q 447 -290 489 -262 q 361 -317 404 -317 q 307 -308 331 -317 q 267 -283 283 -299 q 241 -245 250 -267 q 232 -197 232 -223 q 265 -108 232 -142 q 361 -74 298 -74 q 424 -84 392 -74 q 479 -106 455 -94 q 487 -70 484 -89 q 490 -26 489 -52 l 572 -26 q 549 -146 568 -94 q 614 -195 584 -170 q 667 -243 645 -220 l 667 464 q 654 556 667 515 q 614 626 641 597 q 547 670 588 655 q 450 686 507 686 q 360 674 397 686 q 300 643 323 662 q 264 599 277 623 q 245 550 251 574 m 104 117 q 122 70 104 87 q 170 52 140 52 q 216 70 197 52 q 234 117 234 87 q 216 162 234 145 q 170 179 197 179 q 122 162 140 179 q 104 117 104 145 m 361 -141 q 323 -153 339 -141 q 307 -195 307 -165 q 323 -236 307 -222 q 361 -249 339 -249 q 384 -245 372 -249 q 409 -232 396 -241 q 433 -208 421 -223 q 456 -170 446 -193 q 404 -149 428 -156 q 361 -141 379 -141 z "},"ฏ":{"ha":892,"x_min":31,"x_max":781,"o":"m 245 550 q 310 536 277 546 q 371 515 342 527 q 420 489 399 503 q 454 463 442 475 l 454 424 q 387 404 415 416 q 342 373 359 391 q 316 328 324 354 q 307 265 307 301 l 307 117 q 271 22 307 56 q 168 -12 235 -12 q 66 22 102 -12 q 31 117 31 56 q 65 212 31 178 q 163 245 100 245 q 180 245 171 245 q 193 243 190 244 l 193 267 q 201 331 193 302 q 227 381 210 359 q 273 417 245 402 q 342 440 302 431 q 291 465 321 454 q 229 481 260 475 q 171 491 198 488 q 129 494 143 494 q 152 609 132 557 q 212 699 172 661 q 311 757 252 736 q 450 778 370 778 q 604 755 541 778 q 707 692 667 732 q 763 595 746 651 q 781 472 781 538 l 781 -353 l 673 -353 q 611 -285 646 -318 q 545 -225 577 -252 q 498 -285 528 -258 q 431 -332 469 -313 q 393 -282 413 -306 q 352 -239 374 -259 q 274 -305 315 -281 q 183 -329 233 -329 q 137 -321 159 -329 q 98 -298 115 -313 q 72 -260 82 -283 q 62 -210 62 -238 q 96 -120 62 -155 q 192 -86 129 -86 q 264 -101 227 -86 q 334 -138 301 -115 q 389 58 381 -55 l 475 58 q 448 -70 470 -7 q 391 -184 427 -132 q 419 -212 406 -198 q 444 -239 433 -226 q 486 -190 466 -221 q 521 -118 506 -158 q 560 -146 540 -131 q 599 -179 580 -162 q 636 -212 618 -195 q 667 -242 653 -228 l 667 464 q 654 556 667 515 q 614 626 641 597 q 547 670 588 655 q 450 686 507 686 q 360 674 397 686 q 300 643 323 662 q 264 599 277 623 q 245 550 251 574 m 104 117 q 122 70 104 87 q 170 52 140 52 q 216 70 197 52 q 234 117 234 87 q 216 162 234 145 q 170 179 197 179 q 122 162 140 179 q 104 117 104 145 m 191 -153 q 153 -165 169 -153 q 137 -207 137 -177 q 153 -248 137 -235 q 191 -261 169 -261 q 245 -244 215 -261 q 300 -191 275 -228 q 246 -163 275 -173 q 191 -153 218 -153 z "},"ฐ":{"ha":774,"x_min":58,"x_max":692,"o":"m 163 279 q 181 233 163 250 q 229 216 199 216 q 276 233 258 216 q 294 279 294 250 q 276 326 294 309 q 229 342 258 342 q 181 326 199 342 q 163 279 163 309 m 563 305 q 520 428 563 386 q 386 471 477 471 l 73 471 q 85 614 73 557 q 129 704 98 671 q 209 751 159 738 q 333 764 258 764 l 692 764 l 692 674 l 323 674 q 269 667 294 674 q 226 646 243 660 q 198 611 208 632 q 188 561 188 589 l 409 561 q 532 547 481 561 q 615 502 583 533 q 662 419 647 470 q 677 296 677 369 l 677 171 q 668 90 677 125 q 637 33 659 56 q 583 -2 616 9 q 499 -14 549 -14 q 423 -6 453 -14 q 372 21 393 2 q 334 72 351 40 q 296 151 317 104 l 291 162 q 260 153 279 157 q 228 149 241 149 q 126 183 161 149 q 91 279 91 217 q 126 373 91 339 q 228 408 162 408 q 287 397 263 408 q 329 366 311 386 q 359 316 346 345 q 385 252 372 288 l 421 156 q 453 97 435 118 q 500 77 471 77 q 525 81 513 77 q 545 95 536 85 q 558 121 553 104 q 563 160 563 137 l 563 305 m 400 -73 q 382 -139 393 -107 q 359 -201 372 -172 q 384 -230 372 -215 q 405 -258 395 -245 q 434 -233 418 -250 q 463 -198 450 -215 q 529 -227 494 -211 q 597 -264 564 -243 l 597 -201 q 582 -203 591 -203 q 524 -183 543 -203 q 505 -127 505 -163 q 525 -70 505 -90 q 591 -49 545 -49 q 659 -70 634 -49 q 683 -128 683 -90 l 683 -353 l 597 -353 q 544 -313 574 -332 q 480 -280 513 -293 q 439 -319 464 -299 q 391 -353 414 -339 q 359 -306 375 -330 q 326 -261 344 -281 q 261 -326 298 -300 q 178 -351 224 -351 q 132 -343 154 -351 q 94 -320 110 -335 q 67 -282 77 -304 q 58 -231 58 -260 q 91 -142 58 -176 q 187 -108 124 -108 q 248 -119 218 -108 q 302 -149 278 -131 q 318 -73 313 -113 l 400 -73 m 555 -127 q 564 -149 555 -141 q 587 -157 572 -157 q 609 -149 601 -157 q 618 -127 618 -141 q 609 -103 618 -111 q 587 -95 601 -95 q 555 -127 555 -95 m 186 -175 q 149 -187 165 -175 q 133 -229 133 -199 q 149 -270 133 -256 q 186 -283 165 -283 q 234 -267 208 -283 q 278 -212 259 -250 q 233 -184 258 -194 q 186 -175 208 -175 z "},"ฑ":{"ha":1107,"x_min":39,"x_max":996,"o":"m 241 481 q 226 517 241 504 q 187 531 211 531 q 150 517 165 531 q 136 481 136 504 q 150 443 136 457 q 187 429 165 429 q 226 443 211 429 q 241 481 241 457 m 509 0 l 339 0 l 339 357 q 343 413 339 385 q 359 468 347 441 q 397 521 372 495 q 463 570 421 547 q 460 602 463 585 q 451 634 458 618 q 430 663 444 650 q 392 682 416 676 l 294 595 l 196 683 q 156 662 171 677 q 134 629 142 648 q 124 592 126 611 q 122 559 122 574 q 156 586 135 575 q 203 596 178 596 q 244 589 224 596 q 280 568 264 583 q 304 532 295 554 q 313 481 313 511 q 303 431 313 452 q 277 395 294 410 q 238 373 261 380 q 189 366 216 366 q 122 380 151 366 q 75 418 94 394 q 48 476 57 443 q 39 547 39 509 q 48 623 39 586 q 77 691 57 660 q 128 744 97 722 q 203 774 159 766 l 294 690 l 386 774 q 476 748 439 767 q 535 701 513 728 q 567 640 557 673 q 576 569 576 606 q 512 516 536 542 q 474 463 488 490 q 457 410 461 437 q 453 357 453 384 l 453 102 l 703 627 q 743 700 724 671 q 782 746 762 729 q 826 771 802 764 q 878 778 849 778 q 966 738 936 778 q 996 616 996 698 l 996 0 l 882 0 l 882 628 q 876 672 882 659 q 858 686 869 686 q 832 666 846 686 q 793 597 817 646 l 509 0 z "},"ฒ":{"ha":1253,"x_min":77,"x_max":1128,"o":"m 495 399 q 477 447 495 430 q 429 463 459 463 q 383 447 401 463 q 365 399 365 430 q 383 354 365 371 q 429 336 401 336 q 477 354 459 336 q 495 399 495 371 m 566 117 q 580 73 566 87 q 616 58 594 58 q 655 74 642 58 q 669 121 669 90 l 669 197 q 592 169 618 190 q 566 117 566 149 m 1128 0 l 1008 0 q 962 66 987 34 q 908 125 937 98 q 848 170 880 151 q 783 196 817 189 l 783 143 q 748 27 783 66 q 633 -12 713 -12 q 524 22 560 -12 q 487 117 487 56 q 497 170 487 145 q 530 215 508 195 q 587 248 553 235 q 669 267 621 262 l 669 464 q 664 545 669 512 q 646 600 659 577 q 610 639 633 623 q 551 669 587 655 l 432 572 l 311 669 q 254 640 277 656 q 216 604 231 625 q 196 558 202 584 q 189 497 189 532 q 196 408 189 450 q 213 319 203 365 q 232 220 223 273 q 245 102 241 168 q 272 125 256 112 q 305 154 288 139 q 341 185 323 169 q 375 216 359 201 q 400 245 390 231 q 413 271 411 259 q 324 309 355 275 q 293 399 293 342 q 329 495 293 460 q 431 529 365 529 q 534 492 498 529 q 570 385 570 455 q 561 319 570 349 q 536 263 552 289 q 498 214 520 237 q 450 167 476 191 q 394 120 425 144 q 336 73 364 96 q 286 31 309 50 q 252 0 263 12 l 134 0 l 134 81 q 130 178 134 136 q 119 255 125 220 q 105 318 113 290 q 91 374 98 347 q 81 431 85 402 q 77 494 77 460 q 89 594 77 551 q 128 672 100 638 q 201 731 155 706 q 313 775 246 756 l 432 676 l 551 775 q 666 729 621 755 q 737 667 711 703 q 773 584 763 631 q 783 472 783 536 l 783 270 q 911 224 852 260 q 1015 134 970 188 l 1015 764 l 1128 764 l 1128 0 z "},"ณ":{"ha":1321,"x_min":90,"x_max":1293,"o":"m 316 117 q 298 162 316 145 q 250 179 280 179 q 204 162 222 179 q 186 117 186 145 q 204 70 186 87 q 250 52 222 52 q 298 70 280 52 q 316 117 316 87 m 1118 764 l 1118 267 q 1199 248 1166 262 q 1253 215 1232 235 q 1284 170 1274 195 q 1293 117 1293 145 q 1257 22 1293 56 q 1147 -12 1220 -12 q 1080 -2 1107 -12 q 1036 27 1053 7 q 1012 75 1019 46 q 1004 143 1004 104 l 1004 189 q 936 165 970 182 q 868 122 901 147 q 808 65 836 96 q 759 0 779 34 l 644 0 l 644 464 q 631 556 644 515 q 592 626 618 597 q 525 670 566 655 q 428 686 484 686 q 335 674 374 686 q 270 643 296 662 q 228 599 243 623 q 207 550 213 574 q 260 536 234 546 q 308 515 286 527 q 347 489 330 503 q 374 463 363 475 l 374 424 q 307 404 335 416 q 261 373 279 391 q 235 328 243 354 q 227 265 227 301 l 227 243 q 239 245 230 244 q 257 245 248 245 q 354 212 320 245 q 389 117 389 178 q 353 22 389 56 q 252 -12 317 -12 q 149 22 184 -12 q 113 117 113 56 l 113 267 q 121 331 113 302 q 147 381 129 359 q 193 417 165 402 q 262 440 222 431 q 221 465 245 454 q 171 481 196 475 q 123 491 145 488 q 90 494 101 494 q 116 609 93 557 q 181 699 138 661 q 286 757 224 736 q 428 778 348 778 q 582 755 519 778 q 684 692 645 732 q 741 595 723 651 q 758 472 758 538 l 758 134 q 808 182 780 161 q 869 220 837 204 q 935 248 901 237 q 1004 263 970 258 l 1004 764 l 1118 764 m 1214 117 q 1191 169 1214 149 q 1118 197 1168 190 l 1118 121 q 1128 74 1118 90 q 1164 58 1139 58 q 1200 73 1186 58 q 1214 117 1214 87 z "},"ด":{"ha":895,"x_min":77,"x_max":783,"o":"m 495 386 q 477 433 495 416 q 429 450 459 450 q 383 433 401 450 q 365 386 365 416 q 383 340 365 357 q 429 323 401 323 q 477 340 459 323 q 495 386 495 357 m 413 257 q 324 295 355 262 q 293 386 293 329 q 329 481 293 447 q 431 515 365 515 q 534 478 498 515 q 570 372 570 441 q 561 305 570 335 q 536 250 552 275 q 498 200 520 224 q 450 153 476 177 q 394 109 425 131 q 336 66 364 86 q 286 29 309 46 q 252 0 263 12 l 134 0 l 134 81 q 130 178 134 136 q 119 255 125 220 q 105 318 113 290 q 91 374 98 347 q 81 431 85 402 q 77 494 77 460 q 101 610 77 558 q 172 700 125 663 q 284 758 218 737 q 433 778 350 778 q 595 755 528 778 q 703 692 661 732 q 764 595 745 651 q 783 472 783 538 l 783 0 l 669 0 l 669 464 q 655 556 669 515 q 611 626 640 597 q 537 670 581 655 q 433 686 492 686 q 331 672 376 686 q 255 635 286 659 q 206 575 223 610 q 189 497 189 541 q 196 408 189 450 q 213 319 203 365 q 232 220 223 273 q 245 102 241 168 q 288 137 261 117 q 341 178 315 157 q 389 219 368 199 q 413 257 410 240 z "},"ต":{"ha":895,"x_min":77,"x_max":783,"o":"m 495 399 q 477 447 495 430 q 429 463 459 463 q 383 447 401 463 q 365 399 365 430 q 383 354 365 371 q 429 336 401 336 q 477 354 459 336 q 495 399 495 371 m 77 494 q 89 594 77 551 q 128 672 100 638 q 201 731 155 706 q 313 775 246 756 l 432 676 l 551 775 q 666 729 621 755 q 737 667 711 703 q 773 584 763 631 q 783 472 783 536 l 783 0 l 669 0 l 669 464 q 664 545 669 512 q 646 600 659 577 q 610 639 633 623 q 551 669 587 655 l 432 572 l 311 669 q 254 640 277 656 q 216 604 231 625 q 196 558 202 584 q 189 497 189 532 q 196 408 189 450 q 213 319 203 365 q 232 220 223 273 q 245 102 241 168 q 272 125 256 112 q 305 154 288 139 q 341 185 323 169 q 375 216 359 201 q 400 245 390 231 q 413 271 411 259 q 324 309 355 275 q 293 399 293 342 q 329 495 293 460 q 431 529 365 529 q 534 492 498 529 q 570 385 570 455 q 561 319 570 349 q 536 263 552 289 q 498 214 520 237 q 450 167 476 191 q 394 120 425 144 q 336 73 364 96 q 286 31 309 50 q 252 0 263 12 l 134 0 l 134 81 q 130 178 134 136 q 119 255 125 220 q 105 318 113 290 q 91 374 98 347 q 81 431 85 402 q 77 494 77 460 z "},"ถ":{"ha":895,"x_min":90,"x_max":783,"o":"m 316 117 q 298 162 316 145 q 250 179 280 179 q 204 162 222 179 q 186 117 186 145 q 204 70 186 87 q 250 52 222 52 q 298 70 280 52 q 316 117 316 87 m 90 494 q 117 609 93 557 q 184 699 140 661 q 293 757 229 736 q 440 778 357 778 q 601 755 535 778 q 707 692 666 732 q 765 595 747 651 q 783 472 783 538 l 783 0 l 669 0 l 669 464 q 656 556 669 515 q 614 626 642 597 q 543 670 586 655 q 440 686 500 686 q 342 674 383 686 q 274 643 302 662 q 230 599 245 623 q 207 550 214 574 q 260 536 234 546 q 308 515 286 527 q 347 489 330 503 q 374 463 363 475 l 374 424 q 307 404 335 416 q 261 373 279 391 q 235 328 243 354 q 227 265 227 301 l 227 243 q 241 245 230 244 q 260 245 252 245 q 355 212 321 245 q 389 117 389 178 q 353 22 389 56 q 252 -12 317 -12 q 149 22 184 -12 q 113 117 113 56 l 113 267 q 121 331 113 302 q 147 381 129 359 q 193 417 165 402 q 262 440 222 431 q 221 465 245 454 q 171 481 196 475 q 123 491 145 488 q 90 494 101 494 z "},"ท":{"ha":961,"x_min":31,"x_max":850,"o":"m 193 0 l 193 515 q 179 513 189 514 q 159 513 168 513 q 65 546 99 513 q 31 642 31 580 q 66 737 31 703 q 168 771 102 771 q 271 737 235 771 q 307 642 307 703 l 307 102 l 557 627 q 596 700 577 671 q 635 746 615 729 q 679 771 656 764 q 732 778 703 778 q 820 738 789 778 q 850 616 850 698 l 850 0 l 736 0 l 736 627 q 729 671 736 658 q 711 685 723 685 q 685 666 700 685 q 647 597 670 646 l 363 0 l 193 0 m 104 642 q 121 596 104 613 q 170 578 139 578 q 216 596 197 578 q 234 642 234 613 q 216 688 234 671 q 170 705 197 705 q 121 688 139 705 q 104 642 104 671 z "},"ธ":{"ha":796,"x_min":83,"x_max":703,"o":"m 585 278 q 543 401 585 359 q 408 444 500 444 l 83 444 q 96 592 83 531 q 139 691 109 653 q 219 747 170 730 q 344 764 269 764 l 703 764 l 703 674 l 334 674 q 279 665 304 674 q 237 637 254 655 q 209 594 219 620 q 199 534 199 568 l 431 534 q 555 520 504 534 q 637 474 606 506 q 684 392 669 443 q 699 269 699 342 l 699 240 q 684 142 699 186 q 640 66 669 98 q 566 17 610 35 q 464 0 522 0 l 111 0 l 111 304 l 225 304 l 225 98 l 420 98 q 493 105 462 98 q 545 131 524 113 q 575 179 565 149 q 585 256 585 210 l 585 278 z "},"น":{"ha":869,"x_min":31,"x_max":841,"o":"m 104 642 q 121 596 104 613 q 170 578 139 578 q 216 596 197 578 q 234 642 234 613 q 216 688 234 671 q 170 705 197 705 q 121 688 139 705 q 104 642 104 671 m 666 764 l 666 267 q 747 248 713 262 q 801 215 780 235 q 831 170 822 195 q 841 117 841 145 q 804 22 841 56 q 694 -12 768 -12 q 628 -2 655 -12 q 584 27 600 7 q 559 75 567 46 q 552 143 552 104 l 552 189 q 483 165 518 182 q 416 122 448 147 q 355 65 384 96 q 307 0 327 34 l 193 0 l 193 515 q 179 513 189 514 q 159 513 168 513 q 65 546 99 513 q 31 642 31 580 q 66 737 31 703 q 168 771 102 771 q 271 737 235 771 q 307 642 307 703 l 307 134 q 356 182 328 161 q 417 220 385 204 q 483 248 449 237 q 552 263 517 258 l 552 764 l 666 764 m 762 117 q 739 169 762 149 q 666 197 716 190 l 666 121 q 676 74 666 90 q 712 58 686 58 q 748 73 734 58 q 762 117 762 87 z "},"บ":{"ha":885,"x_min":31,"x_max":774,"o":"m 75 92 l 193 92 l 193 515 q 179 513 189 514 q 159 513 168 513 q 65 546 99 513 q 31 642 31 580 q 66 737 31 703 q 168 771 102 771 q 271 737 235 771 q 307 642 307 703 l 307 92 l 495 92 q 620 132 580 92 q 660 264 660 172 l 660 764 l 774 764 l 774 240 q 759 142 774 186 q 714 66 744 98 q 641 17 685 35 q 538 0 597 0 l 75 0 l 75 92 m 104 642 q 121 596 104 613 q 170 578 139 578 q 216 596 197 578 q 234 642 234 613 q 216 688 234 671 q 170 705 197 705 q 121 688 139 705 q 104 642 104 671 z "},"ป":{"ha":885,"x_min":31,"x_max":774,"o":"m 75 92 l 193 92 l 193 515 q 179 513 189 514 q 159 513 168 513 q 65 546 99 513 q 31 642 31 580 q 66 737 31 703 q 168 771 102 771 q 271 737 235 771 q 307 642 307 703 l 307 92 l 495 92 q 620 132 580 92 q 660 264 660 172 l 660 1146 l 774 1146 l 774 240 q 759 142 774 186 q 714 66 744 98 q 641 17 685 35 q 538 0 597 0 l 75 0 l 75 92 m 104 642 q 121 596 104 613 q 170 578 139 578 q 216 596 197 578 q 234 642 234 613 q 216 688 234 671 q 170 705 197 705 q 121 688 139 705 q 104 642 104 671 z "},"ผ":{"ha":911,"x_min":125,"x_max":786,"o":"m 125 642 q 161 737 125 703 q 264 771 197 771 q 366 737 330 771 q 401 642 401 703 q 367 546 401 580 q 272 513 333 513 q 253 513 264 513 q 239 515 242 514 l 239 149 l 422 410 l 489 410 l 672 149 l 672 764 l 786 764 l 786 0 l 676 0 l 456 315 l 235 0 l 125 0 l 125 642 m 328 642 q 310 688 328 671 q 262 705 292 705 q 216 688 235 705 q 198 642 198 671 q 216 596 198 613 q 262 578 235 578 q 310 596 292 578 q 328 642 328 613 z "},"ฝ":{"ha":911,"x_min":125,"x_max":786,"o":"m 125 642 q 161 737 125 703 q 264 771 197 771 q 366 737 330 771 q 401 642 401 703 q 367 546 401 580 q 272 513 333 513 q 253 513 264 513 q 239 515 242 514 l 239 149 l 422 410 l 489 410 l 672 149 l 672 1146 l 786 1146 l 786 0 l 676 0 l 456 315 l 235 0 l 125 0 l 125 642 m 328 642 q 310 688 328 671 q 262 705 292 705 q 216 688 235 705 q 198 642 198 671 q 216 596 198 613 q 262 578 235 578 q 310 596 292 578 q 328 642 328 613 z "},"พ":{"ha":972,"x_min":31,"x_max":847,"o":"m 193 0 l 193 515 q 179 513 189 514 q 159 513 168 513 q 65 546 99 513 q 31 642 31 580 q 66 737 31 703 q 168 771 102 771 q 271 737 235 771 q 307 642 307 703 l 307 173 l 484 757 l 555 757 l 733 173 l 733 764 l 847 764 l 847 0 l 711 0 l 520 629 l 328 0 l 193 0 m 104 642 q 121 596 104 613 q 170 578 139 578 q 216 596 197 578 q 234 642 234 613 q 216 688 234 671 q 170 705 197 705 q 121 688 139 705 q 104 642 104 671 z "},"ฟ":{"ha":972,"x_min":31,"x_max":847,"o":"m 193 0 l 193 515 q 179 513 189 514 q 159 513 168 513 q 65 546 99 513 q 31 642 31 580 q 66 737 31 703 q 168 771 102 771 q 271 737 235 771 q 307 642 307 703 l 307 173 l 484 757 l 555 757 l 733 173 l 733 1146 l 847 1146 l 847 0 l 711 0 l 520 629 l 328 0 l 193 0 m 104 642 q 121 596 104 613 q 170 578 139 578 q 216 596 197 578 q 234 642 234 613 q 216 688 234 671 q 170 705 197 705 q 121 688 139 705 q 104 642 104 671 z "},"ภ":{"ha":892,"x_min":31,"x_max":781,"o":"m 104 117 q 122 70 104 87 q 170 52 140 52 q 216 70 197 52 q 234 117 234 87 q 216 162 234 145 q 170 179 197 179 q 122 162 140 179 q 104 117 104 145 m 245 550 q 310 536 277 546 q 371 515 342 527 q 420 489 399 503 q 454 463 442 475 l 454 424 q 387 404 415 416 q 342 373 359 391 q 316 328 324 354 q 307 265 307 301 l 307 117 q 271 22 307 56 q 168 -12 235 -12 q 66 22 102 -12 q 31 117 31 56 q 65 212 31 178 q 163 245 100 245 q 180 245 171 245 q 193 243 190 244 l 193 267 q 201 331 193 302 q 227 381 210 359 q 273 417 245 402 q 342 440 302 431 q 291 465 321 454 q 229 481 260 475 q 171 491 198 488 q 129 494 143 494 q 152 609 132 557 q 212 699 172 661 q 311 757 252 736 q 450 778 370 778 q 604 755 541 778 q 707 692 667 732 q 763 595 746 651 q 781 472 781 538 l 781 0 l 667 0 l 667 464 q 654 556 667 515 q 614 626 641 597 q 547 670 588 655 q 450 686 507 686 q 360 674 397 686 q 300 643 323 662 q 264 599 277 623 q 245 550 251 574 z "},"ม":{"ha":831,"x_min":51,"x_max":706,"o":"m 144 642 q 161 596 144 613 q 210 578 179 578 q 256 596 237 578 q 274 642 274 613 q 256 688 274 671 q 210 705 237 705 q 161 688 179 705 q 144 642 144 671 m 706 764 l 706 0 l 592 0 q 543 65 572 34 q 483 122 515 96 q 415 165 450 147 q 347 189 380 182 l 347 143 q 312 27 347 66 q 197 -12 277 -12 q 87 22 124 -12 q 51 117 51 56 q 61 170 51 145 q 94 215 72 195 q 151 248 117 235 q 233 267 185 262 l 233 515 q 219 513 229 514 q 199 513 208 513 q 105 546 139 513 q 71 642 71 580 q 106 737 71 703 q 208 771 142 771 q 311 737 275 771 q 347 642 347 703 l 347 263 q 415 248 381 258 q 482 220 450 237 q 542 182 514 204 q 592 134 570 161 l 592 764 l 706 764 m 130 117 q 144 73 130 87 q 180 58 158 58 q 219 74 205 58 q 233 121 233 90 l 233 197 q 156 169 182 190 q 130 117 130 149 z "},"ย":{"ha":882,"x_min":111,"x_max":772,"o":"m 224 92 l 493 92 q 618 132 578 92 q 658 264 658 172 l 658 764 l 772 764 l 772 240 q 757 142 772 186 q 712 66 742 98 q 639 17 683 35 q 536 0 595 0 l 111 0 l 111 211 q 122 268 111 243 q 152 310 133 292 q 194 340 170 328 q 243 356 218 351 q 194 373 218 361 q 152 405 170 386 q 122 451 133 425 q 111 509 111 477 l 111 642 q 146 737 111 703 q 250 771 182 771 q 351 737 315 771 q 387 642 387 703 q 353 546 387 580 q 258 513 319 513 q 239 513 250 513 q 224 515 228 514 l 224 501 q 237 452 224 472 q 270 419 250 432 q 314 400 290 407 q 363 391 339 393 l 363 322 q 314 312 339 319 q 270 291 290 304 q 237 257 250 277 q 224 210 224 237 l 224 92 m 314 642 q 296 688 314 671 q 248 705 278 705 q 202 688 220 705 q 184 642 184 671 q 202 596 184 613 q 248 578 220 578 q 296 596 278 578 q 314 642 314 613 z "},"ร":{"ha":701,"x_min":51,"x_max":671,"o":"m 380 117 q 398 70 380 87 q 446 52 416 52 q 492 70 474 52 q 511 117 511 87 q 492 162 511 145 q 446 179 474 179 q 398 162 416 179 q 380 117 380 145 m 470 305 q 427 428 470 386 q 293 471 385 471 l 51 471 q 64 614 51 557 q 107 704 77 671 q 187 751 137 738 q 311 764 237 764 l 671 764 l 671 674 l 301 674 q 247 667 272 674 q 204 646 222 660 q 176 611 186 632 q 166 561 166 589 l 316 561 q 439 547 389 561 q 522 502 490 533 q 569 419 554 470 q 584 296 584 369 l 584 117 q 548 22 584 56 q 446 -12 512 -12 q 343 22 380 -12 q 307 117 307 56 q 341 212 307 178 q 436 246 376 246 q 456 245 445 246 q 470 243 467 245 l 470 305 z "},"ฤ":{"ha":895,"x_min":90,"x_max":783,"o":"m 316 117 q 298 162 316 145 q 250 179 280 179 q 204 162 222 179 q 186 117 186 145 q 204 70 186 87 q 250 52 222 52 q 298 70 280 52 q 316 117 316 87 m 90 494 q 117 609 93 557 q 184 699 140 661 q 293 757 229 736 q 440 778 357 778 q 601 755 535 778 q 707 692 666 732 q 765 595 747 651 q 783 472 783 538 l 783 -353 l 669 -353 l 669 464 q 656 556 669 515 q 614 626 642 597 q 543 670 586 655 q 440 686 500 686 q 342 674 383 686 q 274 643 302 662 q 230 599 245 623 q 207 550 214 574 q 260 536 234 546 q 308 515 286 527 q 347 489 330 503 q 374 463 363 475 l 374 424 q 307 404 335 416 q 261 373 279 391 q 235 328 243 354 q 227 265 227 301 l 227 243 q 241 245 230 244 q 260 245 252 245 q 355 212 321 245 q 389 117 389 178 q 353 22 389 56 q 252 -12 317 -12 q 149 22 184 -12 q 113 117 113 56 l 113 267 q 121 331 113 302 q 147 381 129 359 q 193 417 165 402 q 262 440 222 431 q 221 465 245 454 q 171 481 196 475 q 123 491 145 488 q 90 494 101 494 z "},"ล":{"ha":871,"x_min":75,"x_max":760,"o":"m 300 117 q 282 162 300 145 q 235 179 264 179 q 188 162 206 179 q 170 117 170 145 q 188 70 170 87 q 235 52 206 52 q 282 70 264 52 q 300 117 300 87 m 760 0 l 651 0 q 592 141 626 75 q 517 257 557 208 q 431 334 477 306 q 338 363 386 363 q 287 357 310 363 q 247 338 263 351 q 220 308 230 326 q 211 265 211 290 l 211 243 q 225 245 214 244 q 244 245 236 245 q 339 212 305 245 q 373 117 373 178 q 337 22 373 56 q 236 -12 302 -12 q 133 22 169 -12 q 97 117 97 56 l 97 267 q 110 342 97 308 q 149 402 122 377 q 216 442 175 428 q 314 456 257 456 q 429 433 376 456 q 524 371 482 409 q 597 285 566 333 q 646 188 628 237 l 646 451 q 628 554 646 510 q 580 627 611 597 q 505 670 549 656 q 408 684 460 684 q 254 662 322 684 q 127 600 186 640 l 75 684 q 218 752 137 727 q 407 778 300 778 q 559 756 493 778 q 669 693 625 734 q 737 593 714 652 q 760 458 760 534 l 760 0 z "},"ฦ":{"ha":892,"x_min":31,"x_max":781,"o":"m 104 117 q 122 70 104 87 q 170 52 140 52 q 216 70 197 52 q 234 117 234 87 q 216 162 234 145 q 170 179 197 179 q 122 162 140 179 q 104 117 104 145 m 252 550 q 315 536 284 546 q 373 515 347 527 q 421 489 400 503 q 454 463 442 475 l 454 424 q 387 404 415 416 q 342 373 359 391 q 316 328 324 354 q 307 265 307 301 l 307 117 q 271 22 307 56 q 168 -12 235 -12 q 66 22 102 -12 q 31 117 31 56 q 65 212 31 178 q 163 245 100 245 q 180 245 171 245 q 193 243 190 244 l 193 267 q 199 331 193 302 q 221 381 205 359 q 262 417 236 402 q 329 440 288 431 q 279 465 308 454 q 222 481 251 475 q 168 491 193 488 q 129 494 143 494 q 152 609 132 557 q 212 699 172 661 q 310 757 251 736 q 450 778 370 778 q 604 755 541 778 q 706 692 667 732 q 763 595 745 651 q 781 472 781 538 l 781 -353 l 667 -353 l 667 464 q 615 623 667 567 q 450 679 563 679 q 361 668 396 679 q 303 639 326 657 q 269 597 281 621 q 252 550 258 574 z "},"ว":{"ha":674,"x_min":0,"x_max":563,"o":"m 359 117 q 377 70 359 87 q 425 52 395 52 q 471 70 453 52 q 490 117 490 87 q 471 162 490 145 q 425 179 453 179 q 377 162 395 179 q 359 117 359 145 m 286 117 q 320 212 286 178 q 415 246 355 246 q 435 245 424 246 q 449 243 446 245 l 449 488 q 439 566 449 530 q 408 629 429 602 q 356 670 387 655 q 281 684 324 684 q 165 663 223 684 q 54 604 107 642 l 0 684 q 127 752 58 726 q 281 778 196 778 q 401 758 349 778 q 490 702 454 739 q 544 613 526 665 q 563 496 563 561 l 563 117 q 527 22 563 56 q 424 -12 491 -12 q 322 22 358 -12 q 286 117 286 56 z "},"ศ":{"ha":895,"x_min":77,"x_max":939,"o":"m 763 595 q 778 537 772 570 q 783 472 783 505 l 783 0 l 669 0 l 669 464 q 668 496 669 481 q 663 527 666 512 q 545 478 612 503 q 578 386 578 444 q 543 291 578 324 q 440 257 507 257 q 384 269 410 257 q 346 296 359 280 q 323 269 339 288 q 291 218 307 250 q 261 143 274 186 q 248 44 248 99 l 248 28 l 248 0 l 134 0 l 134 81 q 130 178 134 136 q 119 255 125 220 q 105 318 113 290 q 91 374 98 347 q 81 431 85 402 q 77 494 77 460 q 101 610 77 558 q 172 700 125 663 q 284 758 218 737 q 433 778 350 778 q 606 751 537 778 q 717 677 675 724 q 759 726 734 692 q 811 819 783 759 l 939 819 q 896 740 919 776 q 849 675 873 703 q 803 626 825 646 q 763 595 781 606 m 636 594 q 558 662 608 638 q 433 686 507 686 q 331 672 376 686 q 255 635 286 659 q 206 575 223 610 q 189 497 189 541 q 193 436 189 465 q 202 376 196 406 q 214 315 208 346 q 227 249 221 283 q 263 354 243 305 q 308 439 283 403 q 366 495 334 475 q 440 515 398 515 q 456 515 448 515 q 471 513 463 514 q 565 554 524 534 q 636 594 606 574 m 505 386 q 487 433 505 416 q 439 450 469 450 q 393 433 411 450 q 374 386 374 416 q 393 340 374 357 q 439 323 411 323 q 487 340 469 323 q 505 386 505 357 z "},"ษ":{"ha":954,"x_min":31,"x_max":944,"o":"m 524 268 q 448 278 479 268 q 395 306 416 288 q 366 349 375 324 q 356 404 356 374 q 390 490 356 458 q 483 521 425 521 q 575 491 543 521 q 608 412 608 460 q 598 366 608 383 q 578 340 589 349 q 660 370 619 349 l 660 764 l 774 764 l 774 461 q 838 585 817 514 l 944 585 q 874 453 917 512 q 774 351 831 393 l 774 240 q 759 142 774 186 q 714 66 744 98 q 641 17 685 35 q 538 0 597 0 l 75 0 l 75 92 l 193 92 l 193 515 q 179 513 189 514 q 159 513 168 513 q 65 546 99 513 q 31 642 31 580 q 66 737 31 703 q 168 771 102 771 q 271 737 235 771 q 307 642 307 703 l 307 92 l 495 92 q 620 132 580 92 q 660 264 660 172 l 660 290 q 524 268 596 268 m 104 642 q 121 596 104 613 q 170 578 139 578 q 216 596 197 578 q 234 642 234 613 q 216 688 234 671 q 170 705 197 705 q 121 688 139 705 q 104 642 104 671 m 430 404 q 445 367 430 380 q 483 353 459 353 q 520 367 505 353 q 534 404 534 380 q 520 441 534 427 q 483 455 505 455 q 445 441 459 455 q 430 404 430 427 z "},"ส":{"ha":871,"x_min":75,"x_max":830,"o":"m 760 0 l 651 0 q 592 141 626 75 q 517 257 557 208 q 431 334 477 306 q 338 363 386 363 q 287 357 310 363 q 247 338 263 351 q 220 308 230 326 q 211 265 211 290 l 211 243 q 225 245 214 244 q 244 245 236 245 q 339 212 305 245 q 373 117 373 178 q 337 22 373 56 q 236 -12 302 -12 q 133 22 169 -12 q 97 117 97 56 l 97 267 q 110 342 97 308 q 149 402 122 377 q 216 442 175 428 q 314 456 257 456 q 341 455 328 456 q 367 452 354 454 q 516 511 454 482 q 619 573 578 541 q 536 657 591 629 q 408 684 481 684 q 254 662 322 684 q 127 600 186 640 l 75 684 q 218 752 137 727 q 407 778 300 778 q 578 749 507 778 q 694 667 650 721 q 716 781 716 715 l 716 819 l 830 819 l 830 789 q 811 672 830 726 q 745 570 793 618 q 756 517 752 545 q 760 458 760 489 l 760 0 m 459 418 q 522 373 493 399 q 574 317 550 347 q 615 254 597 287 q 646 188 633 221 l 646 451 q 645 473 646 463 q 643 495 644 484 q 561 455 606 474 q 459 418 515 436 m 300 117 q 282 162 300 145 q 235 179 264 179 q 188 162 206 179 q 170 117 170 145 q 188 70 170 87 q 235 52 206 52 q 282 70 264 52 q 300 117 300 87 z "},"ห":{"ha":895,"x_min":31,"x_max":778,"o":"m 104 642 q 121 596 104 613 q 170 578 139 578 q 216 596 197 578 q 234 642 234 613 q 216 688 234 671 q 170 705 197 705 q 121 688 139 705 q 104 642 104 671 m 777 0 l 663 0 l 663 340 q 655 421 663 389 q 635 463 646 454 q 537 373 586 421 q 446 269 489 326 q 366 146 402 212 q 307 0 330 79 l 193 0 l 193 515 q 179 513 189 514 q 159 513 168 513 q 65 546 99 513 q 31 642 31 580 q 66 737 31 703 q 168 771 102 771 q 271 737 235 771 q 307 642 307 703 l 307 209 q 359 294 328 251 q 428 377 391 337 q 504 452 465 416 q 581 513 544 487 q 550 539 565 525 q 525 569 536 553 q 507 605 513 586 q 500 646 500 624 q 510 700 500 676 q 537 739 519 723 q 581 763 555 755 q 637 771 606 771 q 694 763 668 771 q 738 740 720 755 q 767 701 757 724 q 778 648 778 678 q 759 580 778 609 q 707 525 739 551 q 744 484 730 505 q 765 440 758 463 q 775 393 772 418 q 777 339 777 368 l 777 0 m 690 646 q 676 687 690 672 q 637 701 662 701 q 599 686 612 701 q 586 647 586 671 q 591 624 586 635 q 604 603 595 612 q 622 586 612 593 q 644 572 633 578 q 675 602 661 584 q 690 646 690 619 z "},"ฬ":{"ha":935,"x_min":31,"x_max":1056,"o":"m 193 0 l 193 515 q 179 513 189 514 q 159 513 168 513 q 65 546 99 513 q 31 642 31 580 q 66 737 31 703 q 168 771 102 771 q 271 737 235 771 q 307 642 307 703 l 307 173 l 484 757 l 555 757 l 733 173 l 733 726 q 630 771 665 734 q 594 860 594 807 q 628 945 594 914 q 721 977 663 977 q 813 946 781 977 q 846 867 846 916 q 837 822 846 839 q 817 795 827 804 q 867 822 844 807 q 906 857 889 836 q 936 904 924 877 q 956 966 949 930 l 1056 966 q 1028 882 1046 920 q 985 813 1010 843 q 925 762 960 783 q 847 732 891 741 l 847 0 l 711 0 l 520 629 l 328 0 l 193 0 m 104 642 q 121 596 104 613 q 170 578 139 578 q 216 596 197 578 q 234 642 234 613 q 216 688 234 671 q 170 705 197 705 q 121 688 139 705 q 104 642 104 671 m 668 859 q 683 822 668 836 q 721 808 697 808 q 758 822 743 808 q 772 859 772 836 q 758 897 772 883 q 721 911 743 911 q 683 897 697 911 q 668 859 668 883 z "},"อ":{"ha":820,"x_min":78,"x_max":709,"o":"m 315 378 q 297 425 315 408 q 249 442 279 442 q 202 425 220 442 q 184 378 184 408 q 202 333 184 350 q 249 315 220 315 q 297 333 279 315 q 315 378 315 350 m 709 184 q 700 104 709 138 q 669 46 690 69 q 614 12 648 23 q 531 0 581 0 l 289 0 q 205 12 239 0 q 151 46 172 23 q 120 104 130 69 q 111 184 111 138 l 111 378 q 147 473 111 439 q 250 507 183 507 q 352 473 316 507 q 387 378 387 439 q 353 283 387 317 q 258 250 319 250 q 239 250 250 250 q 225 252 229 251 l 225 175 q 240 110 225 128 q 283 92 255 92 l 536 92 q 580 110 565 92 q 595 175 595 128 l 595 488 q 581 566 595 530 q 541 628 568 602 q 474 669 514 654 q 381 684 434 684 q 254 661 318 684 q 131 600 190 639 l 78 684 q 214 751 140 725 q 381 778 288 778 q 518 758 458 778 q 622 701 579 738 q 686 612 664 664 q 709 496 709 560 l 709 184 z "},"ฮ":{"ha":810,"x_min":85,"x_max":766,"o":"m 696 184 q 687 104 696 138 q 656 46 677 69 q 602 12 635 23 q 518 0 568 0 l 276 0 q 193 12 227 0 q 138 46 159 23 q 107 104 117 69 q 98 184 98 138 l 98 315 q 134 410 98 376 q 237 444 170 444 q 339 410 303 444 q 374 315 374 376 q 340 220 374 254 q 245 186 307 186 q 227 187 237 186 q 212 189 216 188 l 212 175 q 227 110 212 128 q 271 92 242 92 l 524 92 q 567 110 552 92 q 582 175 582 128 l 582 526 q 582 536 582 532 q 581 545 581 541 q 488 510 539 523 q 372 498 436 498 q 156 531 227 498 q 85 634 85 564 q 152 741 85 705 q 365 778 219 778 q 512 762 448 778 q 620 710 576 745 q 652 819 644 757 l 766 819 q 732 717 753 765 q 680 629 711 669 q 691 585 687 608 q 696 534 696 562 l 696 184 m 365 702 q 289 696 319 702 q 239 682 258 691 q 211 661 220 673 q 203 635 203 649 q 211 610 203 621 q 240 592 220 600 q 292 581 260 585 q 374 576 325 576 q 553 629 486 576 q 365 702 504 702 m 302 315 q 284 362 302 345 q 236 379 266 379 q 190 362 208 379 q 172 315 172 345 q 190 270 172 287 q 236 252 208 252 q 284 270 266 252 q 302 315 302 287 z "},"ฯ":{"ha":751,"x_min":25,"x_max":626,"o":"m 512 0 l 512 576 q 380 477 456 513 q 207 441 303 441 q 128 452 162 441 q 72 482 94 463 q 37 527 49 501 q 25 583 25 553 q 59 668 25 637 q 152 699 94 699 q 244 669 212 699 q 277 590 277 639 q 268 541 277 562 q 248 511 258 520 q 413 596 345 532 q 512 764 482 661 l 626 764 l 626 0 l 512 0 m 99 582 q 114 545 99 559 q 152 531 128 531 q 189 545 174 531 q 203 582 203 559 q 189 620 203 606 q 152 633 174 633 q 114 620 128 633 q 99 582 99 606 z "},"ะ":{"ha":679,"x_min":52,"x_max":640,"o":"m 234 404 q 155 414 189 404 q 99 444 121 425 q 64 489 76 463 q 52 545 52 515 q 86 630 52 599 q 179 661 121 661 q 272 631 239 661 q 304 552 304 601 q 295 503 304 524 q 275 473 285 482 q 437 558 372 494 q 532 726 503 623 l 640 726 q 582 596 619 655 q 494 494 545 537 q 377 428 442 452 q 234 404 311 404 m 126 544 q 141 507 126 521 q 179 493 155 493 q 216 507 201 493 q 231 544 231 521 q 216 582 231 568 q 179 595 201 595 q 141 582 155 595 q 126 544 126 568 m 234 68 q 155 79 189 68 q 99 109 121 90 q 64 154 76 128 q 52 210 52 180 q 86 295 52 264 q 179 326 121 326 q 272 296 239 326 q 304 217 304 266 q 295 168 304 189 q 275 138 285 147 q 437 223 372 159 q 532 391 503 288 l 640 391 q 582 261 619 320 q 494 159 545 202 q 377 93 442 117 q 234 68 311 68 m 126 209 q 141 172 126 186 q 179 158 155 158 q 216 172 201 158 q 231 209 231 186 q 216 247 231 233 q 179 260 201 260 q 141 247 155 260 q 126 209 126 233 z "},"ั":{"ha":0,"x_min":-440,"x_max":22,"o":"m -264 829 q -339 840 -307 829 q -395 868 -372 850 q -429 911 -417 886 q -440 966 -440 936 q -406 1051 -440 1020 q -313 1082 -372 1082 q -221 1052 -254 1082 q -188 973 -188 1022 q -198 927 -188 945 q -218 901 -208 910 q -168 927 -191 913 q -128 962 -145 942 q -98 1009 -111 983 q -78 1072 -85 1036 l 22 1072 q -13 972 9 1017 q -71 896 -36 928 q -154 847 -106 864 q -264 829 -201 829 m -366 965 q -352 928 -366 942 q -313 914 -337 914 q -276 928 -291 914 q -262 965 -262 942 q -276 1003 -262 989 q -313 1017 -291 1017 q -352 1003 -337 1017 q -366 965 -366 989 z "},"า":{"ha":674,"x_min":0,"x_max":563,"o":"m 563 0 l 449 0 l 449 494 q 439 572 449 537 q 408 632 429 607 q 356 671 387 657 q 281 684 324 684 q 164 661 223 684 q 52 600 105 638 l 0 684 q 127 752 58 726 q 281 778 196 778 q 401 758 349 778 q 490 702 454 739 q 544 613 526 665 q 563 496 563 561 l 563 0 z "},"ำ":{"ha":674,"x_min":-313,"x_max":563,"o":"m 563 0 l 449 0 l 449 494 q 439 572 449 537 q 408 632 429 607 q 356 671 387 657 q 281 684 324 684 q 164 661 223 684 q 52 600 105 638 l 0 684 q 127 752 58 726 q 281 778 196 778 q 401 758 349 778 q 490 702 454 739 q 544 613 526 665 q 563 496 563 561 l 563 0 m -313 951 q -280 1037 -313 1006 q -189 1067 -248 1067 q -96 1037 -128 1067 q -63 951 -63 1006 q -96 865 -63 896 q -189 834 -128 834 q -280 865 -248 834 q -313 951 -313 896 m -246 951 q -230 909 -246 925 q -187 894 -214 894 q -146 909 -163 894 q -130 951 -130 925 q -146 993 -130 977 q -187 1008 -163 1008 q -230 993 -214 1008 q -246 951 -246 977 z "},"ิ":{"ha":0,"x_min":-712,"x_max":-125,"o":"m -125 818 q -271 846 -200 833 q -412 866 -341 858 q -556 879 -483 875 q -712 884 -630 884 q -678 972 -701 932 q -621 1041 -655 1013 q -544 1084 -587 1069 q -447 1100 -500 1100 q -337 1083 -389 1100 q -243 1031 -285 1066 q -170 944 -201 997 q -125 818 -140 890 m -449 1032 q -553 1011 -513 1032 q -614 946 -594 991 q -401 931 -505 946 q -212 895 -298 916 q -249 951 -226 926 q -303 995 -273 977 q -371 1022 -334 1013 q -449 1032 -408 1032 z "},"ี":{"ha":0,"x_min":-712,"x_max":-125,"o":"m -125 818 q -271 846 -200 833 q -412 866 -341 858 q -556 879 -483 875 q -712 884 -630 884 q -678 972 -701 932 q -621 1041 -655 1013 q -544 1084 -587 1069 q -447 1100 -500 1100 q -325 1079 -381 1100 q -223 1014 -268 1058 l -223 1147 l -149 1147 l -149 898 q -135 860 -141 880 q -125 818 -130 840 m -449 1032 q -553 1011 -513 1032 q -614 946 -594 991 q -401 931 -505 946 q -212 895 -298 916 q -249 951 -226 926 q -303 995 -273 977 q -371 1022 -334 1013 q -449 1032 -408 1032 z "},"ึ":{"ha":0,"x_min":-712,"x_max":-58,"o":"m -125 818 q -271 846 -200 833 q -412 866 -341 858 q -556 879 -483 875 q -712 884 -630 884 q -678 972 -701 932 q -621 1041 -655 1013 q -544 1084 -587 1069 q -447 1100 -500 1100 q -359 1090 -401 1100 q -280 1058 -317 1080 q -239 1115 -269 1093 q -172 1137 -210 1137 q -128 1128 -149 1137 q -92 1104 -107 1120 q -67 1068 -76 1088 q -58 1023 -58 1047 q -66 983 -58 1002 q -86 949 -73 964 q -116 924 -98 934 q -154 911 -134 914 q -137 867 -144 890 q -125 818 -130 844 m -449 1032 q -553 1011 -513 1032 q -614 946 -594 991 q -401 931 -505 946 q -212 895 -298 916 q -249 951 -226 926 q -303 995 -273 977 q -371 1022 -334 1013 q -449 1032 -408 1032 m -221 1023 q -206 989 -221 1003 q -170 975 -191 975 q -136 989 -151 975 q -121 1023 -121 1003 q -136 1059 -121 1044 q -170 1074 -151 1074 q -206 1059 -191 1074 q -221 1023 -221 1044 z "},"ื":{"ha":0,"x_min":-712,"x_max":-125,"o":"m -125 818 q -271 846 -200 833 q -412 866 -341 858 q -556 879 -483 875 q -712 884 -630 884 q -678 972 -701 932 q -621 1041 -655 1013 q -544 1084 -587 1069 q -447 1100 -500 1100 q -363 1090 -405 1100 l -363 1147 l -289 1147 l -289 1063 q -220 1010 -251 1042 l -220 1147 l -146 1147 l -146 890 q -134 856 -139 873 q -125 818 -129 838 m -449 1032 q -553 1011 -513 1032 q -614 946 -594 991 q -401 931 -505 946 q -212 895 -298 916 q -249 951 -226 926 q -303 995 -273 977 q -371 1022 -334 1013 q -449 1032 -408 1032 z "},"ุ":{"ha":0,"x_min":-300,"x_max":-122,"o":"m -208 -353 l -208 -221 q -223 -224 -214 -224 q -281 -204 -262 -224 q -300 -147 -300 -184 q -280 -90 -300 -111 q -214 -69 -260 -69 q -146 -90 -171 -69 q -122 -149 -122 -111 l -122 -353 l -208 -353 m -250 -147 q -241 -170 -250 -161 q -218 -178 -233 -178 q -196 -170 -204 -178 q -187 -147 -187 -161 q -196 -123 -187 -132 q -218 -115 -204 -115 q -250 -147 -250 -115 z "},"ู":{"ha":0,"x_min":-507,"x_max":-122,"o":"m -414 -355 l -414 -221 q -429 -224 -420 -224 q -488 -204 -469 -224 q -507 -147 -507 -184 q -487 -90 -507 -111 q -420 -69 -467 -69 q -353 -90 -377 -69 q -328 -149 -328 -111 l -328 -267 l -208 -267 l -208 -79 l -122 -79 l -122 -355 l -414 -355 m -456 -147 q -448 -170 -456 -161 q -424 -178 -439 -178 q -402 -170 -410 -178 q -393 -147 -393 -161 q -402 -123 -393 -132 q -424 -115 -410 -115 q -456 -147 -456 -115 z "},"ฺ":{"ha":0,"x_min":-254,"x_max":-112,"o":"m -254 -151 q -249 -123 -254 -136 q -234 -100 -243 -110 q -211 -85 -224 -91 q -183 -79 -198 -79 q -155 -85 -168 -79 q -133 -100 -142 -91 q -118 -123 -123 -110 q -112 -151 -112 -136 q -118 -178 -112 -165 q -133 -201 -123 -191 q -155 -216 -142 -211 q -183 -222 -168 -222 q -211 -216 -198 -222 q -234 -201 -224 -211 q -249 -178 -243 -191 q -254 -151 -254 -165 z "},"฿":{"ha":765,"x_min":98,"x_max":709,"o":"m 426 1084 l 426 987 q 538 964 490 981 q 617 918 586 947 q 665 844 649 888 q 681 741 681 800 q 668 662 681 699 q 629 597 654 625 q 567 551 604 570 q 484 526 530 532 l 484 519 q 571 496 530 511 q 643 454 612 481 q 691 387 673 427 q 709 288 709 346 q 690 173 709 224 q 635 85 671 121 q 546 26 599 48 q 426 1 493 5 l 426 -114 l 331 -114 l 331 0 l 98 0 l 98 991 l 331 991 l 331 1084 l 426 1084 m 583 293 q 574 354 583 326 q 548 404 566 382 q 500 441 530 426 q 426 463 470 456 l 426 109 q 499 131 469 115 q 548 170 529 146 q 574 225 566 194 q 583 293 583 256 m 218 105 l 331 105 l 331 467 l 218 467 l 218 105 m 218 570 l 331 570 l 331 886 l 218 886 l 218 570 m 559 732 q 527 832 559 796 q 426 880 494 867 l 426 574 q 529 626 499 587 q 559 732 559 666 z "},"เ":{"ha":426,"x_min":125,"x_max":401,"o":"m 239 763 l 239 243 q 253 245 242 245 q 272 246 263 246 q 367 213 332 246 q 401 117 401 179 q 365 22 401 56 q 263 -12 329 -12 q 160 22 196 -12 q 125 117 125 56 l 125 763 l 239 763 m 328 117 q 310 163 328 146 q 262 180 292 180 q 216 163 234 180 q 197 117 197 146 q 216 70 197 87 q 262 53 234 53 q 310 70 292 53 q 328 117 328 87 z "},"แ":{"ha":791,"x_min":125,"x_max":766,"o":"m 239 763 l 239 243 q 253 245 242 245 q 272 246 263 246 q 367 213 332 246 q 401 117 401 179 q 365 22 401 56 q 263 -12 329 -12 q 160 22 196 -12 q 125 117 125 56 l 125 763 l 239 763 m 328 117 q 310 163 328 146 q 262 180 292 180 q 216 163 234 180 q 197 117 197 146 q 216 70 197 87 q 262 53 234 53 q 310 70 292 53 q 328 117 328 87 m 604 763 l 604 243 q 617 245 607 245 q 637 246 628 246 q 731 213 697 246 q 766 117 766 179 q 730 22 766 56 q 628 -12 694 -12 q 525 22 561 -12 q 490 117 490 56 l 490 763 l 604 763 m 692 117 q 675 163 692 146 q 627 180 657 180 q 581 163 599 180 q 562 117 562 146 q 581 70 562 87 q 627 53 599 53 q 675 70 657 53 q 692 117 692 87 z "},"โ":{"ha":617,"x_min":16,"x_max":613,"o":"m 495 117 q 477 163 495 146 q 429 180 460 180 q 383 163 401 180 q 365 117 365 146 q 383 70 365 87 q 429 53 401 53 q 477 70 460 53 q 495 117 495 87 m 292 926 q 250 1049 292 1007 q 115 1092 207 1092 l 16 1092 q 30 1235 16 1179 q 76 1325 44 1292 q 158 1372 107 1359 q 283 1385 209 1385 l 613 1385 l 613 1295 l 273 1295 q 218 1288 244 1295 q 173 1267 192 1281 q 143 1232 154 1253 q 132 1182 132 1211 l 138 1182 q 262 1168 211 1182 q 345 1123 313 1154 q 391 1041 376 1091 q 406 918 406 990 l 406 243 q 420 245 410 245 q 439 246 431 246 q 534 213 500 246 q 568 117 568 179 q 532 22 568 56 q 431 -12 496 -12 q 328 22 363 -12 q 292 117 292 56 l 292 926 z "},"ใ":{"ha":625,"x_min":23,"x_max":600,"o":"m 225 1103 q 210 1140 225 1126 q 172 1154 195 1154 q 135 1140 149 1154 q 120 1103 120 1126 q 135 1065 120 1080 q 172 1051 149 1051 q 210 1065 195 1051 q 225 1103 225 1080 m 600 117 q 564 22 600 56 q 462 -12 528 -12 q 359 22 395 -12 q 323 117 323 56 l 323 979 q 330 1051 323 1019 q 350 1109 336 1082 q 386 1157 364 1135 q 440 1200 408 1179 q 434 1239 440 1218 q 412 1278 429 1260 q 366 1309 395 1297 q 287 1321 336 1321 q 208 1310 241 1321 q 151 1281 174 1299 q 118 1237 129 1262 q 106 1182 106 1211 q 141 1208 119 1198 q 187 1219 162 1219 q 229 1212 209 1219 q 264 1191 249 1205 q 288 1155 279 1177 q 297 1103 297 1133 q 288 1054 297 1075 q 262 1018 278 1032 q 223 996 245 1003 q 174 988 200 988 q 106 1002 135 988 q 60 1040 78 1015 q 32 1098 41 1064 q 23 1173 23 1132 q 38 1260 23 1219 q 84 1333 52 1301 q 166 1382 116 1364 q 287 1400 216 1400 q 409 1384 357 1400 q 494 1341 460 1369 q 545 1278 528 1314 q 561 1199 561 1241 q 503 1147 526 1172 q 464 1098 479 1123 q 444 1044 450 1072 q 437 979 437 1015 l 437 243 q 451 245 441 245 q 471 246 462 246 q 565 213 531 246 q 600 117 600 179 m 526 117 q 509 163 526 146 q 460 180 491 180 q 414 163 433 180 q 396 117 396 146 q 414 70 396 87 q 460 53 433 53 q 509 70 491 53 q 526 117 526 87 z "},"ไ":{"ha":676,"x_min":24,"x_max":651,"o":"m 165 1145 l 206 1234 q 245 1309 227 1278 q 283 1361 264 1341 q 326 1391 303 1381 q 378 1400 349 1400 q 459 1363 429 1400 q 489 1238 489 1325 l 489 243 q 503 245 492 245 q 522 246 513 246 q 617 213 583 246 q 651 117 651 179 q 615 22 651 56 q 513 -12 579 -12 q 411 22 446 -12 q 375 117 375 56 l 375 1243 q 370 1295 375 1280 q 353 1310 365 1310 q 342 1307 348 1310 q 329 1297 336 1305 q 313 1274 322 1289 q 293 1234 304 1259 l 173 991 l 90 991 l 24 1400 l 129 1400 l 165 1145 m 578 117 q 560 163 578 146 q 512 180 543 180 q 466 163 484 180 q 448 117 448 146 q 466 70 448 87 q 512 53 484 53 q 560 70 543 53 q 578 117 578 87 z "},"ๅ":{"ha":674,"x_min":0,"x_max":563,"o":"m 563 -353 l 449 -353 l 449 494 q 439 572 449 537 q 408 632 429 607 q 356 671 387 657 q 281 684 324 684 q 164 661 223 684 q 52 600 105 638 l 0 684 q 127 752 58 726 q 281 778 196 778 q 401 758 349 778 q 490 702 454 739 q 544 613 526 665 q 563 496 563 561 l 563 -353 z "},"ๆ":{"ha":688,"x_min":39,"x_max":576,"o":"m 241 481 q 226 517 241 504 q 187 531 211 531 q 150 517 165 531 q 136 481 136 504 q 150 443 136 457 q 187 429 165 429 q 226 443 211 429 q 241 481 241 457 m 463 564 q 460 596 463 578 q 451 631 458 614 q 430 662 444 648 q 392 682 416 676 l 294 595 l 196 683 q 156 662 171 677 q 134 629 142 648 q 124 592 126 611 q 122 559 122 574 q 156 586 135 575 q 203 596 178 596 q 244 589 224 596 q 280 568 264 583 q 304 532 295 554 q 313 481 313 511 q 303 431 313 452 q 277 395 294 410 q 238 373 261 380 q 189 366 216 366 q 122 380 151 366 q 75 418 94 394 q 48 476 57 443 q 39 547 39 509 q 48 623 39 586 q 77 691 57 660 q 128 744 97 722 q 203 774 159 766 l 294 690 l 386 774 q 476 747 439 767 q 535 697 513 726 q 567 634 557 669 q 576 562 576 599 l 576 -353 l 463 -353 l 463 564 z "},"็":{"ha":0,"x_min":-584,"x_max":-76,"o":"m -156 910 q -205 929 -189 910 q -221 973 -221 949 q -205 1015 -221 997 q -157 1034 -190 1034 q -83 950 -83 1034 q -90 906 -83 928 q -110 867 -96 884 q -143 839 -123 850 q -192 828 -164 828 q -247 839 -222 828 q -294 865 -273 850 q -333 895 -315 880 q -363 915 -350 909 q -397 869 -379 892 q -433 828 -416 847 q -495 844 -467 832 q -543 876 -523 856 q -573 923 -562 895 q -584 985 -584 950 q -540 1092 -584 1057 q -422 1126 -496 1126 l -237 1126 q -188 1128 -212 1126 q -142 1132 -163 1129 q -103 1140 -121 1135 q -76 1149 -86 1144 l -76 1082 q -132 1064 -98 1069 q -208 1060 -167 1060 l -422 1060 q -459 1054 -444 1060 q -484 1037 -475 1047 q -497 1013 -493 1027 q -501 985 -501 1000 q -452 905 -501 920 q -417 942 -435 918 q -384 994 -400 966 q -332 970 -357 987 q -284 937 -307 954 q -239 908 -260 920 q -198 895 -218 895 q -170 901 -180 895 q -156 910 -159 906 m -180 972 q -173 954 -180 960 q -153 947 -165 947 q -135 954 -142 947 q -128 972 -128 960 q -135 991 -128 984 q -153 998 -142 998 q -173 991 -165 998 q -180 972 -180 984 z "},"ํ":{"ha":0,"x_min":-313,"x_max":-63,"o":"m -313 951 q -280 1037 -313 1006 q -189 1067 -248 1067 q -96 1037 -128 1067 q -63 951 -63 1006 q -96 865 -63 896 q -189 834 -128 834 q -280 865 -248 834 q -313 951 -313 896 m -246 951 q -230 909 -246 925 q -187 894 -214 894 q -146 909 -163 894 q -130 951 -130 925 q -146 993 -130 977 q -187 1008 -163 1008 q -230 993 -214 1008 q -246 951 -246 977 z "},"๎":{"ha":0,"x_min":-336,"x_max":-58,"o":"m -132 966 q -183 965 -160 966 q -224 960 -207 964 q -250 948 -241 956 q -260 927 -260 941 q -243 900 -260 909 q -193 890 -227 890 q -136 896 -163 890 q -93 908 -109 901 l -93 845 q -135 834 -108 840 q -194 829 -161 829 q -299 853 -262 829 q -336 922 -336 878 q -306 977 -336 956 q -224 998 -277 998 q -244 1007 -233 1001 q -264 1021 -255 1013 q -280 1042 -273 1030 q -286 1069 -286 1054 q -275 1108 -286 1093 q -245 1134 -264 1124 q -203 1147 -227 1143 q -155 1152 -180 1152 q -104 1146 -132 1152 q -58 1131 -77 1141 l -81 1074 q -110 1084 -92 1079 q -155 1090 -129 1090 q -200 1080 -184 1090 q -215 1057 -215 1070 q -193 1030 -215 1036 q -132 1024 -172 1024 l -132 966 z "},"๏":{"ha":894,"x_min":51,"x_max":843,"o":"m 51 382 q 82 536 51 465 q 167 662 113 608 q 293 747 221 716 q 447 779 365 779 q 601 747 529 779 q 727 662 673 716 q 812 536 781 608 q 843 382 843 465 q 812 229 843 300 q 727 103 781 157 q 601 18 673 49 q 447 -14 529 -14 q 293 18 365 -14 q 167 103 221 49 q 82 229 113 157 q 51 382 51 300 m 149 382 q 172 267 149 321 q 236 172 195 212 q 331 107 277 131 q 447 84 385 84 q 563 107 509 84 q 658 172 617 131 q 722 267 699 212 q 745 382 745 321 q 722 498 745 444 q 658 593 699 553 q 563 657 617 634 q 447 681 509 681 q 331 657 385 681 q 236 593 277 634 q 172 498 195 553 q 149 382 149 444 m 310 382 q 321 436 310 411 q 350 480 332 461 q 393 509 368 498 q 447 520 418 520 q 500 509 475 520 q 544 480 526 498 q 574 436 563 461 q 585 382 585 411 q 574 329 585 354 q 544 286 563 304 q 500 256 526 267 q 447 245 475 245 q 393 256 418 245 q 350 286 368 267 q 321 329 332 304 q 310 382 310 354 z "},"๐":{"ha":922,"x_min":89,"x_max":833,"o":"m 460 77 q 564 92 516 77 q 647 137 612 107 q 701 210 682 167 q 721 310 721 254 q 701 409 721 366 q 647 481 682 452 q 564 526 612 511 q 460 541 516 541 q 357 526 405 541 q 275 481 310 511 q 220 409 240 452 q 201 310 201 366 q 220 210 201 254 q 275 137 240 167 q 357 92 310 107 q 460 77 405 77 m 460 -14 q 307 8 376 -14 q 190 72 239 31 q 115 174 142 114 q 89 309 89 233 q 115 445 89 385 q 191 546 142 505 q 308 609 239 587 q 460 631 376 631 q 613 609 545 631 q 731 546 682 587 q 806 445 780 505 q 833 309 833 385 q 806 174 833 233 q 731 72 780 114 q 613 8 682 31 q 460 -14 545 -14 z "},"๑":{"ha":922,"x_min":90,"x_max":833,"o":"m 386 285 q 401 248 386 262 q 439 235 416 235 q 476 248 462 235 q 491 285 491 262 q 476 323 491 309 q 439 337 462 337 q 401 323 416 337 q 386 285 386 309 m 833 272 q 823 180 833 222 q 797 105 813 139 q 758 45 780 72 q 711 -3 736 18 l 643 68 q 674 105 659 84 q 700 152 689 126 q 718 208 711 178 q 725 269 725 237 q 704 382 725 332 q 646 468 682 433 q 562 522 610 503 q 461 541 514 541 q 360 524 408 541 q 277 474 313 507 q 220 393 241 441 q 199 285 199 346 q 213 192 199 232 q 251 125 228 152 q 305 84 275 98 q 367 71 336 71 q 424 81 399 71 q 467 109 450 91 q 495 152 485 127 q 505 206 505 177 q 470 180 492 191 q 424 170 449 170 q 382 177 402 170 q 347 198 362 184 q 323 234 332 212 q 314 285 314 256 q 323 335 314 313 q 349 371 333 356 q 388 393 366 385 q 437 400 411 400 q 507 387 476 400 q 558 349 537 373 q 590 290 579 324 q 602 216 602 256 q 587 128 602 170 q 542 56 572 87 q 469 6 513 24 q 367 -12 425 -12 q 255 8 306 -12 q 168 67 204 28 q 110 163 131 106 q 90 290 90 219 q 116 426 90 363 q 190 534 142 488 q 307 605 238 579 q 460 631 375 631 q 612 604 543 631 q 729 530 680 578 q 806 417 779 483 q 833 272 833 351 z "},"๒":{"ha":922,"x_min":108,"x_max":823,"o":"m 514 338 q 499 375 514 361 q 460 389 484 389 q 424 375 438 389 q 409 338 409 361 q 424 300 409 315 q 460 286 438 286 q 499 300 484 286 q 514 338 514 315 m 108 792 l 222 792 l 222 264 q 228 185 222 218 q 249 132 233 153 q 291 101 264 111 q 360 92 318 92 l 570 92 q 640 101 612 92 q 682 132 667 111 q 703 185 697 153 q 709 264 709 218 l 709 421 q 707 453 709 435 q 700 489 705 471 q 687 520 695 506 q 665 539 679 534 l 568 453 l 469 541 q 430 520 444 534 q 407 487 415 505 q 397 450 399 469 q 395 417 395 431 q 430 443 408 433 q 476 454 451 454 q 518 447 498 454 q 553 426 538 440 q 577 390 568 412 q 586 338 586 368 q 576 289 586 310 q 551 253 567 267 q 512 231 534 238 q 463 223 489 223 q 394 237 424 223 q 345 276 365 252 q 315 334 326 300 q 305 405 305 367 q 315 480 305 444 q 347 548 326 517 q 400 601 368 579 q 476 631 433 623 l 568 548 l 659 631 q 745 604 713 625 q 794 555 777 584 q 817 491 812 526 q 823 420 823 456 l 823 240 q 812 142 823 186 q 777 66 802 98 q 713 17 753 35 q 615 0 673 0 l 315 0 q 217 17 257 0 q 153 66 178 35 q 118 142 129 98 q 108 240 108 186 l 108 792 z "},"๓":{"ha":922,"x_min":86,"x_max":836,"o":"m 430 101 q 415 138 430 124 q 376 151 400 151 q 339 138 354 151 q 325 101 325 124 q 339 63 325 77 q 376 49 354 49 q 415 63 400 49 q 430 101 430 77 m 836 313 q 826 205 836 254 q 800 117 817 157 q 761 48 783 78 q 714 -3 739 18 l 646 68 q 677 113 662 84 q 703 176 692 141 q 721 248 714 211 q 727 316 727 285 q 720 421 727 378 q 699 491 712 464 q 666 530 685 517 q 624 542 647 542 q 576 523 596 542 q 543 472 556 504 q 524 399 530 440 q 518 314 518 358 l 518 290 l 404 290 l 404 314 q 398 399 404 358 q 379 472 392 440 q 346 523 366 504 q 298 542 326 542 q 256 530 275 542 q 224 491 237 517 q 203 421 210 464 q 195 316 195 378 q 211 183 195 237 q 255 102 227 130 q 266 153 255 132 q 294 189 277 174 q 333 210 311 203 q 377 216 355 216 q 424 210 401 216 q 464 189 446 203 q 491 153 481 174 q 502 101 502 131 q 467 17 502 47 q 361 -14 433 -14 q 259 4 309 -14 q 171 61 209 22 q 109 162 132 100 q 86 313 86 224 q 100 460 86 400 q 138 559 113 521 q 199 614 163 597 q 281 631 235 631 q 355 616 324 631 q 408 575 387 601 q 442 514 429 549 q 461 439 454 479 q 481 514 468 479 q 515 575 494 549 q 567 616 536 601 q 642 631 598 631 q 723 614 687 631 q 784 559 759 597 q 823 460 809 521 q 836 313 836 400 z "},"๔":{"ha":922,"x_min":87,"x_max":833,"o":"m 813 0 l 376 0 q 245 20 300 0 q 155 75 190 40 q 103 157 120 110 q 87 260 87 205 q 109 384 87 330 q 175 479 130 438 q 287 548 219 519 q 446 597 354 577 q 572 637 521 614 q 656 686 624 660 q 702 739 688 711 q 715 792 715 766 l 833 792 q 812 708 833 748 q 751 633 791 667 q 652 570 711 598 q 515 524 593 543 q 373 481 433 505 q 276 428 314 458 q 220 355 238 397 q 202 256 202 313 q 214 190 202 220 q 251 138 225 160 q 317 104 276 116 q 415 92 357 92 l 578 92 q 477 175 510 124 q 444 286 444 226 q 453 346 444 318 q 482 394 463 374 q 529 427 501 415 q 594 439 557 439 q 643 431 621 439 q 682 409 666 424 q 708 373 699 395 q 718 323 718 352 q 709 273 718 294 q 685 237 700 251 q 649 215 669 222 q 608 208 629 208 q 561 219 583 208 q 527 245 540 229 q 563 192 536 218 q 628 146 589 167 q 714 111 667 125 q 813 92 762 96 l 813 0 m 646 323 q 631 361 646 347 q 592 376 616 376 q 555 361 570 376 q 541 323 541 347 q 555 287 541 300 q 592 273 570 273 q 631 287 616 273 q 646 323 646 300 z "},"๕":{"ha":922,"x_min":87,"x_max":833,"o":"m 813 0 l 376 0 q 245 20 300 0 q 155 75 190 40 q 103 157 120 110 q 87 260 87 205 q 101 362 87 316 q 144 445 115 408 q 216 510 172 481 q 318 561 259 539 q 298 595 305 575 q 291 640 291 614 q 300 691 291 669 q 327 727 310 713 q 366 748 343 741 q 416 755 389 755 q 466 747 443 755 q 505 725 488 740 q 530 689 521 711 q 540 640 540 668 q 540 631 540 635 q 539 624 540 627 q 620 662 587 642 q 675 704 654 682 q 706 748 696 726 q 715 792 715 771 l 833 792 q 812 708 833 748 q 751 633 791 667 q 652 570 711 598 q 515 524 593 543 q 373 481 433 505 q 276 428 314 458 q 220 355 238 397 q 202 256 202 313 q 214 190 202 220 q 251 138 225 160 q 317 104 276 116 q 415 92 357 92 l 578 92 q 477 175 510 124 q 444 286 444 226 q 453 346 444 318 q 482 394 463 374 q 529 427 501 415 q 594 439 557 439 q 643 431 621 439 q 682 409 666 424 q 708 373 699 395 q 718 323 718 352 q 709 273 718 294 q 685 237 700 251 q 649 215 669 222 q 608 208 629 208 q 561 219 583 208 q 527 245 540 229 q 563 192 536 218 q 628 146 589 167 q 714 111 667 125 q 813 92 762 96 l 813 0 m 646 323 q 631 361 646 347 q 592 376 616 376 q 555 361 570 376 q 541 323 541 347 q 555 287 541 300 q 592 273 570 273 q 631 287 616 273 q 646 323 646 300 m 468 637 q 453 675 468 661 q 414 690 438 690 q 377 675 392 690 q 363 637 363 661 q 377 601 363 614 q 414 587 392 587 q 453 601 438 587 q 468 637 468 614 z "},"๖":{"ha":922,"x_min":74,"x_max":807,"o":"m 429 285 q 414 323 429 309 q 376 337 399 337 q 339 323 353 337 q 324 285 324 309 q 339 248 324 262 q 376 235 353 235 q 414 248 399 235 q 429 285 429 262 m 204 791 q 222 738 213 770 q 241 671 232 705 q 257 605 250 636 q 267 554 264 573 q 301 571 280 562 q 349 590 321 581 q 408 605 376 599 q 476 610 440 610 q 607 588 547 610 q 712 524 667 566 q 782 423 756 482 q 807 290 807 363 q 785 161 807 217 q 723 66 764 104 q 626 8 683 28 q 500 -12 570 -12 q 381 5 434 -12 q 291 52 328 22 q 234 126 254 83 q 214 221 214 169 q 225 295 214 262 q 257 352 236 328 q 309 388 278 375 q 378 400 339 400 q 427 393 404 400 q 466 371 450 385 q 492 335 482 356 q 501 285 501 313 q 492 234 501 256 q 468 198 484 212 q 433 177 453 184 q 391 170 413 170 q 345 180 366 170 q 311 206 323 191 q 325 152 311 177 q 364 109 339 127 q 423 81 389 91 q 496 71 456 71 q 578 85 541 71 q 642 128 616 100 q 683 195 669 155 q 698 285 698 235 q 677 390 698 346 q 623 464 656 435 q 546 507 589 492 q 457 521 503 521 q 383 513 418 521 q 318 494 348 506 q 264 468 288 482 q 224 439 241 454 q 206 488 217 460 q 182 550 195 517 q 155 617 170 583 q 126 684 140 652 q 98 744 112 716 q 74 791 85 772 l 204 791 z "},"๗":{"ha":922,"x_min":56,"x_max":863,"o":"m 348 101 q 333 138 348 124 q 294 151 318 151 q 257 138 272 151 q 243 101 243 124 q 257 63 243 77 q 294 49 272 49 q 333 63 318 49 q 348 101 348 77 m 302 367 q 300 434 302 403 q 290 490 297 466 q 270 528 282 514 q 238 542 258 542 q 201 530 215 542 q 179 491 186 517 q 168 421 171 464 q 165 316 165 378 q 166 248 165 275 q 170 202 168 220 q 177 174 173 184 q 185 155 180 163 q 230 201 201 186 q 295 216 259 216 q 342 210 319 216 q 381 189 364 203 q 409 153 399 174 q 420 101 420 131 q 386 17 420 47 q 286 -14 352 -14 q 191 4 233 -14 q 118 61 148 22 q 72 162 88 100 q 56 313 56 224 q 65 460 56 400 q 93 559 74 521 q 144 614 113 597 q 220 631 175 631 q 283 619 258 631 q 323 587 308 608 q 345 539 338 567 q 357 479 353 511 q 370 539 361 511 q 396 587 379 567 q 439 619 413 608 q 503 631 465 631 q 578 614 549 631 q 625 559 608 597 q 650 460 643 521 q 657 313 657 400 l 657 92 q 730 132 705 92 q 754 264 754 172 l 754 792 l 863 792 l 863 240 q 853 142 863 186 q 820 66 844 98 q 758 17 797 35 q 661 0 719 0 l 548 0 l 548 316 q 545 421 548 378 q 535 491 543 464 q 516 530 528 517 q 486 542 505 542 q 449 528 463 542 q 426 490 435 514 q 414 434 418 466 q 411 367 411 403 l 302 367 z "},"๘":{"ha":922,"x_min":73,"x_max":854,"o":"m 384 246 q 470 211 429 236 q 547 158 510 185 q 617 111 583 132 q 684 91 652 91 q 740 117 718 91 q 769 192 763 144 q 735 166 756 176 q 688 155 713 155 q 647 162 667 155 q 611 184 627 170 q 587 220 596 198 q 578 271 578 241 q 588 320 578 299 q 614 356 597 342 q 653 378 630 371 q 702 386 675 386 q 767 373 739 386 q 815 339 795 361 q 844 287 834 317 q 854 222 854 257 q 842 125 854 168 q 808 53 830 82 q 756 8 787 24 q 689 -7 726 -7 q 639 1 663 -7 q 593 22 615 9 q 551 51 571 35 q 513 81 531 66 q 479 106 495 95 q 448 123 463 118 q 438 86 444 105 q 425 49 432 67 q 411 16 418 31 q 397 -9 404 1 q 246 12 308 -9 q 145 70 184 33 q 90 156 107 107 q 73 260 73 205 q 95 384 73 330 q 161 479 117 438 q 273 548 205 519 q 432 597 340 577 q 559 637 507 614 q 642 686 610 660 q 688 739 674 711 q 702 792 702 766 l 819 792 q 799 708 819 748 q 738 633 778 667 q 638 570 697 598 q 502 524 579 543 q 360 481 419 505 q 262 428 300 458 q 207 355 224 397 q 189 256 189 313 q 201 191 189 220 q 234 140 213 161 q 283 107 255 119 q 343 94 311 95 q 358 124 351 106 q 370 162 365 142 q 378 204 375 182 q 384 246 382 226 m 755 271 q 741 307 755 294 q 702 321 726 321 q 665 307 680 321 q 650 271 650 294 q 665 233 650 247 q 702 218 680 218 q 741 233 726 218 q 755 271 755 247 z "},"๙":{"ha":922,"x_min":83,"x_max":873,"o":"m 678 547 q 709 587 695 565 q 734 639 724 610 q 750 706 745 669 q 756 792 756 744 l 873 792 q 859 670 873 726 q 817 568 844 614 q 753 486 790 522 q 671 423 715 450 q 650 453 664 435 q 620 488 636 470 q 587 521 604 505 q 557 545 570 536 q 536 518 548 531 q 513 494 525 505 q 537 449 526 472 q 560 402 549 425 l 749 0 l 622 0 l 492 294 q 444 397 467 351 q 400 475 422 443 q 355 525 378 507 q 306 542 332 542 q 257 530 279 542 q 221 491 236 517 q 199 421 207 464 q 192 316 192 378 q 204 183 192 237 q 245 102 216 130 q 256 153 245 132 q 284 189 267 174 q 323 210 301 203 q 367 216 345 216 q 414 210 391 216 q 453 189 436 203 q 481 153 471 174 q 492 101 492 131 q 455 17 492 47 q 336 -14 418 -14 q 243 4 289 -14 q 162 61 197 22 q 104 162 126 100 q 83 313 83 224 q 100 460 83 400 q 146 559 117 521 q 216 614 176 597 q 303 631 256 631 q 392 613 354 631 q 460 564 430 595 q 483 583 471 572 q 505 605 494 593 q 525 629 516 616 q 539 656 534 642 q 585 632 563 646 q 624 603 606 618 q 656 573 642 587 q 678 547 670 558 m 420 101 q 405 138 420 124 q 366 151 390 151 q 329 138 344 151 q 315 101 315 124 q 329 63 315 77 q 366 49 344 49 q 405 63 390 49 q 420 101 420 77 z "},"๚":{"ha":996,"x_min":25,"x_max":871,"o":"m 512 0 l 512 576 q 380 477 456 513 q 207 441 303 441 q 128 452 162 441 q 72 482 94 463 q 37 527 49 501 q 25 583 25 553 q 59 668 25 637 q 152 699 94 699 q 244 669 212 699 q 277 590 277 639 q 268 541 277 562 q 248 511 258 520 q 413 596 345 532 q 512 764 482 661 l 626 764 l 626 0 l 512 0 m 758 0 l 758 764 l 871 764 l 871 0 l 758 0 m 99 582 q 114 545 99 559 q 152 531 128 531 q 189 545 174 531 q 203 582 203 559 q 189 620 203 606 q 152 633 174 633 q 114 620 128 633 q 99 582 99 606 z "},"๛":{"ha":1272,"x_min":52,"x_max":1220,"o":"m 1220 349 l 1220 311 l 1059 279 l 982 130 l 971 130 l 887 311 l 787 75 l 774 75 l 679 311 q 653 238 668 276 q 618 165 638 201 q 572 97 598 129 q 514 42 547 66 q 440 4 481 18 q 351 -9 400 -9 q 219 14 275 -9 q 126 78 163 37 q 70 176 89 119 q 52 299 52 233 q 67 419 52 363 q 115 518 83 476 q 195 585 147 560 q 305 610 242 610 q 391 594 353 610 q 455 549 429 578 q 495 480 481 520 q 509 393 509 441 q 500 316 509 351 q 473 255 491 281 q 426 216 454 230 q 359 201 397 201 q 310 209 332 201 q 271 231 287 216 q 245 267 254 245 q 235 317 235 288 q 244 368 235 347 q 268 404 253 390 q 303 425 283 418 q 345 432 323 432 q 392 421 370 432 q 426 395 413 411 q 419 441 426 419 q 398 481 412 464 q 361 509 384 498 q 307 519 338 519 q 235 502 265 519 q 185 454 204 484 q 156 384 165 425 q 146 298 146 344 q 158 211 146 251 q 195 143 170 172 q 258 98 220 114 q 349 81 296 81 q 453 105 408 81 q 536 180 499 130 q 604 309 574 231 q 661 495 633 387 l 676 495 l 783 227 l 879 448 l 893 448 l 981 258 l 1045 382 l 1220 349 m 307 317 q 322 279 307 293 q 361 264 337 264 q 398 279 383 264 q 412 317 412 293 q 398 353 412 340 q 361 367 383 367 q 322 353 337 367 q 307 317 307 340 z "},"่":{"ha":0,"x_min":-232,"x_max":-141,"o":"m -232 1450 l -141 1450 l -141 1204 l -232 1204 l -232 1450 z "},"้":{"ha":0,"x_min":-475,"x_max":-52,"o":"m -283 1394 q -290 1355 -283 1374 q -309 1319 -298 1336 q -331 1290 -319 1303 q -352 1269 -343 1277 q -246 1282 -286 1270 q -186 1323 -207 1295 q -159 1396 -165 1352 q -153 1502 -153 1440 l -52 1502 q -62 1371 -52 1427 q -103 1277 -72 1314 q -192 1222 -134 1240 q -347 1204 -250 1204 l -422 1204 l -422 1270 q -397 1291 -410 1279 q -374 1316 -385 1303 q -358 1343 -364 1329 q -352 1370 -352 1357 q -381 1353 -366 1359 q -415 1348 -396 1348 q -459 1368 -443 1348 q -475 1424 -475 1389 q -456 1481 -475 1460 q -391 1502 -437 1502 q -341 1493 -362 1502 q -308 1470 -321 1485 q -289 1435 -295 1455 q -283 1394 -283 1415 m -422 1424 q -414 1404 -422 1411 q -393 1396 -406 1396 q -373 1404 -380 1396 q -365 1424 -365 1411 q -373 1446 -365 1438 q -393 1453 -380 1453 q -422 1424 -422 1453 z "},"๊":{"ha":0,"x_min":-589,"x_max":-52,"o":"m -238 1356 q -245 1303 -238 1327 q -257 1269 -252 1279 q -212 1291 -232 1276 q -179 1334 -193 1306 q -159 1402 -166 1361 q -153 1502 -153 1444 l -52 1502 q -65 1371 -52 1427 q -112 1277 -79 1314 q -201 1222 -145 1240 q -341 1204 -256 1204 q -326 1239 -332 1221 q -315 1276 -319 1258 q -309 1312 -311 1295 q -307 1341 -307 1329 q -308 1369 -307 1355 q -315 1396 -310 1383 q -329 1418 -320 1409 q -351 1431 -338 1428 l -412 1380 l -475 1432 q -504 1418 -493 1428 q -520 1395 -514 1408 q -527 1369 -526 1382 q -528 1345 -528 1356 q -503 1364 -519 1357 q -469 1372 -488 1372 q -439 1367 -453 1372 q -414 1351 -425 1362 q -396 1325 -403 1341 q -390 1289 -390 1310 q -415 1225 -390 1247 q -479 1204 -441 1204 q -528 1215 -508 1204 q -562 1244 -549 1225 q -582 1288 -576 1263 q -589 1340 -589 1312 q -582 1394 -589 1368 q -561 1442 -575 1421 q -524 1480 -547 1464 q -469 1502 -501 1496 l -412 1455 l -356 1502 q -304 1481 -326 1495 q -267 1447 -282 1467 q -245 1404 -252 1428 q -238 1356 -238 1381 m -445 1289 q -455 1312 -445 1303 q -481 1321 -465 1321 q -505 1312 -495 1321 q -515 1289 -515 1303 q -505 1263 -515 1272 q -481 1253 -495 1253 q -455 1263 -465 1253 q -445 1289 -445 1272 z "},"๋":{"ha":0,"x_min":-309,"x_max":-64,"o":"m -309 1293 l -309 1360 l -220 1360 l -220 1449 l -153 1449 l -153 1360 l -64 1360 l -64 1293 l -153 1293 l -153 1204 l -220 1204 l -220 1293 l -309 1293 z "},"์":{"ha":0,"x_min":-549,"x_max":3,"o":"m -297 1305 q -330 1226 -297 1257 q -422 1196 -363 1196 q -515 1227 -481 1196 q -549 1313 -549 1259 q -539 1365 -549 1343 q -505 1404 -528 1388 q -441 1430 -481 1420 q -345 1445 -402 1440 q -223 1460 -270 1452 q -149 1481 -176 1469 q -111 1510 -122 1493 q -96 1550 -100 1527 l 3 1550 q -15 1486 -3 1513 q -50 1440 -26 1459 q -109 1411 -73 1422 q -201 1394 -145 1400 q -255 1389 -233 1392 q -291 1385 -277 1387 q -314 1381 -305 1383 q -327 1377 -322 1379 q -307 1351 -317 1369 q -297 1305 -297 1334 m -481 1314 q -465 1272 -481 1287 q -422 1257 -449 1257 q -382 1272 -398 1257 q -366 1314 -366 1287 q -382 1355 -366 1339 q -422 1370 -398 1370 q -465 1355 -449 1370 q -481 1314 -481 1339 z "},"​":{"ha":0,"x_min":0,"x_max":0,"o":""},"◌":{"ha":825,"x_min":69,"x_max":756,"o":"m 665 623 q 632 589 665 589 q 597 623 597 589 q 632 656 597 656 q 665 623 665 656 m 564 689 q 532 656 564 656 q 496 689 496 656 q 532 724 496 724 q 564 689 564 724 m 732 522 q 697 488 732 488 q 664 522 664 488 q 699 555 664 555 q 732 522 732 555 m 756 404 q 724 370 756 370 q 688 404 688 370 q 724 438 688 438 q 756 404 756 438 m 446 714 q 412 680 446 680 q 378 714 378 680 q 412 747 378 747 q 446 714 446 747 m 329 689 q 294 656 329 656 q 261 689 261 656 q 294 724 261 724 q 329 689 329 724 m 732 286 q 697 253 732 253 q 664 286 664 253 q 697 321 664 321 q 732 286 732 321 m 229 623 q 195 589 229 589 q 161 621 161 589 q 195 656 161 656 q 229 623 229 656 m 665 184 q 632 151 665 151 q 597 184 597 151 q 632 219 597 219 q 665 184 665 219 m 564 118 q 532 85 564 85 q 496 118 496 85 q 532 153 496 153 q 564 118 564 153 m 161 522 q 129 488 161 488 q 94 522 94 488 q 127 555 94 555 q 161 522 161 555 m 137 404 q 104 370 138 370 q 69 404 69 370 q 104 438 69 438 q 137 404 138 438 m 446 96 q 412 61 446 61 q 378 96 378 61 q 412 129 378 129 q 446 96 446 129 m 161 286 q 127 253 161 253 q 94 286 94 253 q 127 321 94 321 q 161 286 161 321 m 329 121 q 294 85 329 85 q 261 118 261 85 q 294 153 261 153 q 329 121 329 153 m 229 184 q 195 151 229 151 q 161 184 161 151 q 195 219 161 219 q 229 184 229 219 z "}}}
